<?xml version="1.0" encoding="utf-8"?>
<!-- Generator: Adobe Illustrator 16.0.0, SVG Export Plug-In . SVG Version: 6.00 Build 0)  -->
<!DOCTYPE svg PUBLIC "-//W3C//DTD SVG 1.1//EN" "http://www.w3.org/Graphics/SVG/1.1/DTD/svg11.dtd">
<svg version="1.1" xmlns="http://www.w3.org/2000/svg" xmlns:xlink="http://www.w3.org/1999/xlink" x="0px" y="0px" width="600px"
	 height="1120.875px" viewBox="0 0 600 1120.875" enable-background="new 0 0 600 1120.875" xml:space="preserve">
<g id="background">
	<rect y="59" fill-rule="evenodd" clip-rule="evenodd" fill="#91CAE4" width="600" height="880.719"/>
</g>
<g id="Orange_boxes" display="none">
	<rect display="inline" fill-rule="evenodd" clip-rule="evenodd" fill="#FF5A00" width="600" height="59"/>
	<rect y="16.696" display="inline" fill-rule="evenodd" clip-rule="evenodd" fill="none" width="600" height="50.807"/>
	<text transform="matrix(1 0 0 1 142.0898 27.3433)" display="inline"><tspan x="0" y="0" fill="#FFFFFF" font-family="'NetworkRailSans'" font-size="15">Scroll over the map to see what engineering works  </tspan><tspan x="17.708" y="18" fill="#FFFFFF" font-family="'NetworkRailSans'" font-size="15">will be happening over the Christmas period. </tspan></text>
	<rect y="939.719" display="inline" fill-rule="evenodd" clip-rule="evenodd" fill="#FF5A00" width="600" height="183.281"/>
	<rect x="219.988" y="962" display="inline" fill-rule="evenodd" clip-rule="evenodd" fill="none" width="161.313" height="152"/>
	<text transform="matrix(1 0 0 1 285.2104 972.6499)" display="inline"><tspan x="0" y="0" fill="#FFFFFF" font-family="'NetworkRailSans-Bold'" font-size="15">Over </tspan><tspan x="-54.927" y="44.8" fill="#FFFFFF" font-family="'NetworkRailSans-Bold'" font-size="49">20,000</tspan><tspan x="86.776" y="44.8" fill="#FFFFFF" font-family="'NetworkRailSans'" font-size="33"> </tspan><tspan x="-62.107" y="65.8" fill="#FFFFFF" font-family="'NetworkRailSans'" font-size="15">members of the Orange </tspan><tspan x="-56.422" y="82.8" fill="#FFFFFF" font-family="'NetworkRailSans'" font-size="15">Army will be working </tspan><tspan x="-52.072" y="99.8" fill="#FFFFFF" font-family="'NetworkRailSans'" font-size="15">over the Christmas &amp; </tspan><tspan x="-38.52" y="116.8" fill="#FFFFFF" font-family="'NetworkRailSans'" font-size="15">New Year period</tspan></text>
	<rect x="18.042" y="962" display="inline" fill-rule="evenodd" clip-rule="evenodd" fill="none" width="163.313" height="152"/>
	<text transform="matrix(1 0 0 1 84.2656 972.6499)" display="inline"><tspan x="0" y="0" fill="#FFFFFF" font-family="'NetworkRailSans-Bold'" font-size="15">Over </tspan><tspan x="-41.869" y="44.8" fill="#FFFFFF" font-family="'NetworkRailSans-Bold'" font-size="49">7,500</tspan><tspan x="73.718" y="44.8" fill="#FFFFFF" font-family="'NetworkRailSans'" font-size="33"> </tspan><tspan x="-33.817" y="67.8" fill="#FFFFFF" font-family="'NetworkRailSans'" font-size="15">sites across the  </tspan><tspan x="-54.997" y="84.8" fill="#FFFFFF" font-family="'NetworkRailSans'" font-size="15">country on just under </tspan><tspan x="-58.829" y="101.8" fill="#FFFFFF" font-family="'NetworkRailSans'" font-size="15">500 individual projects</tspan></text>
	
		<rect x="415.241" y="982.399" display="inline" fill-rule="evenodd" clip-rule="evenodd" fill="none" width="163.001" height="125.856"/>
	<text transform="matrix(1 0 0 1 424.0718 1017.1855)" display="inline"><tspan x="0" y="0" fill="#FFFFFF" font-family="'NetworkRailSans-Bold'" font-size="49">£150m </tspan><tspan x="19.619" y="21" fill="#FFFFFF" font-family="'NetworkRailSans'" font-size="15">of investment in </tspan><tspan x="-4.23" y="38" fill="#FFFFFF" font-family="'NetworkRailSans'" font-size="15">improving &amp; expanding </tspan><tspan x="36.614" y="55" fill="#FFFFFF" font-family="'NetworkRailSans'" font-size="15">our railway</tspan></text>
	
		<line display="inline" fill="none" stroke="#FFFFFF" stroke-width="1.4173" stroke-miterlimit="10" x1="199" y1="962" x2="199" y2="1096"/>
	
		<line display="inline" fill="none" stroke="#FFFFFF" stroke-width="1.4173" stroke-miterlimit="10" x1="399" y1="963" x2="399" y2="1097"/>
</g>
<g id="key" display="none">
	
		<rect x="362.658" y="165.777" display="inline" fill-rule="evenodd" clip-rule="evenodd" fill="none" width="248.007" height="358.145"/>
	<text transform="matrix(1 0 0 1 362.6572 175.0073)" display="inline"><tspan x="0" y="0" fill="#575756" font-family="'NetworkRailSans'" font-size="13">1. Edinburgh Haymarket </tspan><tspan x="0" y="21.6" fill="#575756" font-family="'NetworkRailSans'" font-size="13">2. Northern Hub</tspan><tspan x="0" y="43.2" fill="#575756" font-family="'NetworkRailSans'" font-size="13">3. Doncaster station</tspan><tspan x="0" y="64.8" fill="#575756" font-family="'NetworkRailSans'" font-size="13">4. North Lincs </tspan><tspan x="0" y="86.4" fill="#575756" font-family="'NetworkRailSans'" font-size="13">5. Stafford/Crewe </tspan><tspan x="0" y="108" fill="#575756" font-family="'NetworkRailSans'" font-size="13">6. Cardiff Resignalling</tspan><tspan x="0" y="129.6" fill="#575756" font-family="'NetworkRailSans'" font-size="13">7. London Liverpool Street - Shenfield</tspan><tspan x="0" y="151.2" fill="#575756" font-family="'NetworkRailSans'" font-size="13">8. London Paddington - Heathrow </tspan><tspan x="0" y="172.8" fill="#575756" font-family="'NetworkRailSans'" font-size="13">9. Thameslink Programme</tspan><tspan x="0" y="194.4" fill="#575756" font-family="'NetworkRailSans'" font-size="13">10. Brighton Mainline</tspan><tspan x="0" y="255.6" font-family="'NetworkRailSans-Bold'" font-size="17"> </tspan></text>
</g>
<g id="map">
	<path fill-rule="evenodd" clip-rule="evenodd" fill="#FFFFFF" d="M515.447,680.758c-0.725,2.423-1.333,4.89-2.205,7.261
		c-0.994,2.696-2.219,5.307-3.342,7.954c-1.199,2.834-1.862,5.782-2.026,8.857c-0.062,1.148-0.229,2.299-0.479,3.418
		c-0.516,2.295-1.663,4.071-4.063,4.847c-2.808,0.904-4.847,2.628-5.955,5.479c-0.691,1.781-1.848,3.309-3.938,4.09
		c-1.059-1.172-2.165-2.392-3.269-3.611c-0.14,0.085-0.282,0.167-0.421,0.249c0.064,0.701,0.13,1.401,0.201,2.218
		c-1.973,0.785-4.143-1.113-6.282,0.369c0.877,1.266,2.103,0.868,3.132,0.935c1.144,0.072,2.296,0.016,3.598,0.016
		c-0.125,2.335-2.112,3.317-3.097,4.791c1.097,1.723,2.689,0.388,4.185,0.961c-2.234,2.721-4.27,5.343-7.624,6.49
		c-2.16,0.741-4.16,0.183-5.819-1.112c-1.597-1.248-2.976-1.074-4.505-0.134c-0.63,0.386-1.329,0.687-1.887,1.157
		c-2.382,2.011-5.047,3.36-8.29,3.587c-0.047,1.303,0.77,1.672,1.682,1.708c0.884,0.03,1.797-0.123,2.66-0.336
		c1.034-0.255,2.025-0.675,3.045-0.994c2.822-0.883,4.494,0.664,3.891,3.586c-0.542,2.635-1.408,3.427-4.262,3.956
		c-0.542,0.102-1.062,0.32-1.679,0.958c0.766,0.232,1.518,0.558,2.298,0.665c0.863,0.116,1.752,0.025,2.901,0.025
		c-1.115,2.438-2.742,3.998-5.027,4.623c-2.523,0.694-5.136,1.071-7.711,1.585c-3.296,0.662-6.625,1.203-9.877,2.032
		c-2.098,0.531-3.019,1.56-4.3,3.824c0.771-0.158,1.364-0.213,1.912-0.402c1.476-0.515,2.913-1.125,4.393-1.631
		c3.096-1.057,5.946-0.432,8.901,1.377c-1.76,2.553-5.529,1.664-7.02,4.598c0.445,0.258,0.862,0.634,1.339,0.743
		c0.796,0.183,1.642,0.137,2.448,0.288c1.503,0.272,2.47-0.342,3.321-1.556c1.836-2.627,3.299-3.094,6.322-2.191
		c2.101,0.629,3.755,1.905,5.225,3.608c-1.575,1.432-3.647,1.166-5.375,2.352c0.821,0.125,1.658,0.428,2.458,0.354
		c3.269-0.307,6.544-0.628,9.785-1.132c3.654-0.568,7.256-1.452,10.916-1.974c2.021-0.292,4.11-0.254,6.155-0.125
		c1.913,0.12,2.253,1.003,1.17,2.617c-0.591,0.884-1.318,1.685-1.946,2.551c-0.915,1.274-1.161,2.575-0.636,4.175
		c2.119,6.461,0.542,9.753-5.75,12.2c-2.682,1.045-5.42,1.94-8.106,2.973c-1.224,0.473-2.391,1.085-3.563,1.678
		c-3.294,1.662-4.494,4.401-4.049,7.971c0.051,0.409,0.103,0.813,0.195,1.547c-0.787-0.056-1.473-0.067-2.145-0.161
		c-2.522-0.342-5.021-0.831-7.604-0.313c-1.696,0.336-3.158,0.917-4.112,2.42c-0.851,1.338-2.046,1.992-3.617,2.283
		c-2.258,0.417-4.5,0.985-6.704,1.641c-4.498,1.332-8.495,3.533-11.758,7.427c-2.256-0.717-4.563-1.518-6.91-2.177
		c-4.745-1.336-9.496-2.653-14.278-3.864c-2.42-0.613-4.943-0.719-7.323,0.121c-5.635,1.991-11.524,2.653-17.376,3.552
		c-0.65,0.097-1.289,0.291-1.941,0.345c-1.744,0.142-3.194,0.664-3.545,2.554c-3.259,0.101-4.788-0.716-6.512-3.454
		c0.439-0.595,0.91-1.228,1.417-1.912c-0.933-1.589-2.637-1.579-4.068-2.476c-0.214,1.339-0.408,2.458-0.578,3.58
		c-0.177,1.177-0.788,1.507-1.91,1.068c-0.64-1.504,1.095-3.052-0.171-4.586c-0.954,0.124-1.281,0.891-1.66,1.588
		c-0.313,0.579-0.502,1.271-0.95,1.716c-0.322,0.321-1.01,0.5-1.458,0.396c-0.293-0.071-0.671-0.781-0.62-1.149
		c0.114-0.791,0.483-1.546,0.789-2.429c-1.12-0.984-2.254-0.873-3.513,0.105c0.36,0.913,0.711,1.798,1.07,2.7
		c-0.925,0.992-1.864,1.158-2.909,0.442c-1.764-1.207-3.52-2.426-5.273-3.649c-1.82-1.273-3.604-2.597-5.461-3.816
		c-0.689-0.459-1.532-0.684-2.378-0.737c1.874,1.765,3.792,3.486,5.587,5.324c0.389,0.396,0.337,1.218,0.51,1.94
		c-3.798,2.506-7.754,4.49-11.859,6.164c-0.842,0.339-1.926,0.125-2.897,0.078c-0.39-0.021-0.769-0.279-1.154-0.42
		c-3.155-1.16-3.324-1.126-5.814,1.084c-3.132-1.249-5.794,0.455-8.553,1.752c-1.5-0.592-2.639-2.264-4.478-1.641
		c-1,0.341-2.334,0.183-3.034,1.672c0.541,0.172,0.952,0.323,1.37,0.426c1.43,0.353,2.913,0.563,4.287,1.064
		c1.59,0.582,1.98,1.656,1.542,3.384c-0.485,1.921-1.564,2.894-3.239,2.614c-2.755-0.461-5.481-1.079-8.218-1.635
		c-2.418-0.493-4.809-1.186-7.249-1.431c-1.759-0.18-3.591,0.118-5.358,0.413c-1.281,0.214-1.953,1.139-1.749,2.536
		c0.149,1.058,0.329,2.116,0.394,3.183c0.034,0.525-0.16,1.072-0.349,2.179c-0.617-1.466-0.898-2.467-1.42-3.317
		c-1.129-1.849-2.626-3.32-4.584-4.372c-3.84-2.063-7.654-4.178-11.396-6.414c-1.386-0.826-2.756-1.061-4.244-0.814
		c-5.76,0.96-11.533,1.871-17.254,3.028c-1.438,0.292-2.75,1.36-4.033,2.199c-1.16,0.764-2.137,1.809-3.313,2.541
		c-1.257,0.786-1.745,0.594-2.698-0.589c-0.597-0.748-1.184-1.501-2.223-2.084c0.168,1.09,0.35,2.177,0.504,3.271
		c0.231,1.646-0.037,3.127-1.509,4.162c-1.456,1.022-1.907,2.501-1.576,4.132c0.387,1.911,0.494,3.548-2.361,3.785
		c0.713,1.538,1.168,2.658,1.738,3.721c1.113,2.081,0.652,3.28-1.654,3.981c-1.716,0.521-2.719,1.78-3.462,3.295
		c-0.397,0.808-0.657,1.688-1.016,2.515c-1.642,3.794-5.587,4.921-8.929,2.45c-1.446-1.071-2.779-2.335-4-3.664
		c-1.511-1.635-3.026-2.637-5.401-1.786c-1.921,0.688-3.432-0.24-4.805-1.68c-1.054-1.104-2.377-1.977-3.67-2.812
		c-0.483-0.312-1.222-0.225-2.194-0.374c0.632,0.981,1.047,1.627,1.464,2.273c-1.665,1.112-2.309,1.21-3.196,0.048
		c-1.149-1.508-2.657-1.926-4.35-1.777c-1.546,0.137-3.085,0.451-4.593,0.825c-1.353,0.337-2.694,0.779-3.98,1.318
		c-3.063,1.281-6.122,0.871-9.214,0.194c-0.933-0.202-1.899-0.265-3.002-0.409c-0.661,1.894-1.27,3.583-1.837,5.288
		c-0.491,1.473-1.246,2.391-2.912,2.943c-1.977,0.655-3.744,1.983-5.535,3.125c-0.874,0.557-1.6,1.351-2.651,2.262
		c-0.366-1.642-0.658-2.952-1.059-4.75c-0.6,0.739-1.082,1.075-1.188,1.502c-0.617,2.473-1.133,4.972-3.144,6.827
		c1.02,1.487,1.924,2.803,2.909,4.238c-2.679,1.989-5.1,3.785-7.444,5.526c-1.458-2.172-2.874-4.349-4.363-6.476
		c-1.254-1.789-2.956-3.089-4.889-4.071c-1.833-0.933-3.723-1.249-5.725-0.516c-1.125,0.417-1.983,1.008-2.545,2.152
		c-0.501,1.017-1.19,1.995-1.994,2.791c-0.518,0.511-1.377,0.88-2.11,0.933c-1.402,0.101-2.887,0.008-3.542-1.608
		c-0.744-1.836-0.993-3.708,0.296-5.404c1.106-1.456,2.488-2.584,4.267-3.237c2.5-0.914,5.054-1.549,7.716-1.395
		c1.485,0.087,2.261-0.635,3.293-1.572c1.989-1.811,4.339-3.216,6.514-4.826c1.583-1.166,3.2-2.309,4.649-3.628
		c0.694-0.628,1.256-1.586,1.495-2.495c0.634-2.391,1.833-4.021,4.512-4.029c0.486-2.052,0.854-3.988,1.413-5.863
		c0.569-1.904,1.284-3.786,3.661-4.156c0.229-0.037,0.521-0.174,0.637-0.357c1.348-2.139,3.513-2.275,5.669-2.221
		c1.548,0.037,2.479-0.475,2.93-1.985c1.084-3.64,3.414-6.202,6.591-8.297c3.194-2.111,4.542-5.585,5.059-9.267
		c0.388-2.763,0.47-5.57,0.649-8.361c0.062-0.977,0.009-1.956,0.009-3.27c1.182,0.097,2.129,0.087,3.039,0.268
		c1.37,0.274,2.704,0.723,4.069,1.018c2.358,0.518,4.392-0.055,6.027-1.9c0.598-0.676,1.21-1.353,1.892-1.946
		c1.329-1.152,1.395-2.533,0.828-4.035c-0.487-1.293-1.543-2.705-0.658-3.949c1.211-1.705,2.576-3.464,4.884-3.92
		c1.37-0.269,2.724-0.685,4.108-0.819c3.768-0.374,7.542-0.778,11.32-0.878c2.863-0.075,5.737,0.295,8.608,0.485
		c1.801,0.117,3.608,0.424,5.4,0.348c1.542-0.064,2.896,0.217,4.281,0.847c1.491,0.676,3.036,1.286,4.616,1.718
		c2.589,0.713,5.214,0.745,7.74-0.333c2.15-0.925,4.34-1.538,6.707-1.273c0.243,0.024,0.494,0.006,0.737-0.023
		c2.38-0.286,3.13-1.208,2.898-3.607c-0.072-0.734-0.395-1.473-0.336-2.187c0.115-1.366,0.081-2.902,0.712-4.038
		c2.464-4.437,5.763-8.206,10.038-11.015c0.938-0.617,2.031-1.106,3.124-1.352c1.246-0.278,2.009-0.916,2.646-1.968
		c1.449-2.39,2.801-4.877,4.54-7.046c1.943-2.42,4.255-4.545,6.43-6.78c1.092-1.12,2.266-2.153,3.34-3.286
		c0.351-0.379,0.502-0.944,0.956-1.841c-0.929,0.154-1.496,0.114-1.921,0.341c-4.851,2.572-9.096,5.972-12.527,10.223
		c-3.361,4.162-7.56,6.144-12.824,6.193c-4.759,0.043-8.13,2.759-11.118,6.052c-0.694,0.77-1.401,1.812-1.49,2.782
		c-0.184,2.028-1.532,2.592-3.069,3.031c-3.152,0.891-6.378,0.843-9.559,0.319c-2.013-0.336-3.99-0.983-5.928-1.65
		c-1.996-0.689-3.513-2.098-4.811-3.745c-0.728-0.923-1.526-1.806-2.825-1.741c-1.559,0.077-2.163-0.971-2.674-2.131
		c-0.726-1.654-1.293-3.386-2.13-4.981c-1.907-3.633-6.339-4.503-9.67-2.148c-1.304,0.921-0.626,2.036-0.664,3.229
		c-1.717,0-3.361,0.037-5.001-0.012c-1.43-0.045-2.737,0.128-3.969,1c-1.323,0.937-2.805,0.917-4.167,0.003
		c-1.334-0.887-1.541-2.263-1.343-3.728c0.219-1.637,0.687-2.133,2.37-2.289c1.637-0.148,3.295-0.093,4.93-0.257
		c1.652-0.166,2.942-0.886,3.349-3.059c-2.545,0-4.908,0.141-7.242-0.046c-1.697-0.137-3.396-0.597-5.023-1.132
		c-1.045-0.339-2.076-0.963-2.484-2.352c0.679-0.218,1.243-0.401,2.077-0.666c-0.992-1.344-1.853-2.514-2.731-3.7
		c-1.183,0.207-2.217,0.388-3.359,0.589c0,0.521,0,0.982,0,1.625c-1.622,0.805-3.373,1.072-5.158,1.161
		c-0.819,0.041-1.65,0.036-2.471-0.037c-2.047-0.175-3.783,0.617-4.392,2.48c-1.01,3.091-3.324,3.769-6.041,3.93
		c-2.126,0.124-3.942,0.788-5.632,2.146c-1.811,1.45-3.936,1.294-5.841-0.342c-1.279-1.099-2.354-2.442-3.856-4.032
		c2.147-0.212,3.841-0.297,5.509-0.563c1.596-0.253,3.201-0.588,4.526-2.061c-0.738,0-1.503-0.127-2.208,0.024
		c-2.644,0.564-5.22,0.175-7.818-0.31c-1.695-0.316-1.735-0.23-3.479,1.359c-0.738-0.917-1.484-1.844-2.352-2.92
		c0.675-0.422,1.499-0.912,2.3-1.438c0.752-0.491,1.601-0.908,2.192-1.552c1.021-1.114,1.771-2.371,1.071-4.028
		c-0.733-1.729-1.815-2.897-3.818-3c-1.873-0.1-3.743-0.265-5.54-0.393c-0.537-1.751,0.138-2.684,1.373-3.256
		c1.416-0.66,2.844-1.331,4.33-1.787c2.816-0.863,4.776-2.483,5.48-5.434c0.055-0.23,0.24-0.426,0.494-0.853
		c0.948,0.083,1.986,0.193,3.026,0.26c1.805,0.117,3.618,0.34,5.414,0.25c0.906-0.042,2.094-0.417,2.621-1.074
		c2.158-2.675,5.25-4.306,7.453-6.925c0.507-0.603,1.555-0.917,2.398-1.039c2.197-0.318,4.433-0.369,6.624-0.705
		c0.922-0.139,2.007-0.505,2.618-1.151c2.434-2.566,5.569-4.064,8.489-5.889c3.302-2.065,6.476-4.271,8.399-7.8
		c0.58-1.068,1.157-2.18,1.457-3.345c0.7-2.706,1.296-5.445,1.803-8.195c0.308-1.676,0.913-2.926,2.701-3.418
		c0.923-0.254,1.836-0.689,2.215-2.154c-1.061,0.1-1.945,0.065-2.761,0.283c-1.258,0.334-2.031-0.181-2.717-1.137
		c-1.337-1.863-1.939-3.928-0.971-6.042c0.77-1.682,1.938-3.193,2.996-4.732c0.397-0.575,0.984-1.021,1.457-1.5
		c-0.213-0.297-0.277-0.49-0.395-0.534c-1.254-0.442-2.858,0.119-3.724-1.447c-1.211-2.188-2.977-4.032-2.575-6.952
		c0.647-4.695-0.258-5.543-4.915-5.611c-2.853-0.037-5.576,0.572-8.151,1.716c-2.345,1.042-4.155,2.65-4.65,5.372
		c-0.128,0.701-0.444,1.372-0.764,2.317c-0.834-0.497-1.58-0.819-2.183-1.319c-1.903-1.57-3.875-1.512-5.993-0.492
		c-1.222,0.589-2.344,1.583-4.109,1.214c0.188-0.556,0.271-1.093,0.528-1.521c2.171-3.617,5.284-6.242,8.839-8.43
		c2.942-1.808,5.899-3.595,8.19-6.285c1.042-1.228,1.814-2.51,2.192-4.068c0.253-1.037,0.479-2.108,0.936-3.058
		c0.366-0.766,0.93-1.646,1.641-1.989c1.269-0.61,2.064-1.568,2.86-2.626c1.187-1.576,2.381-3.152,3.675-4.638
		c0.45-0.517,1.19-1.068,1.818-1.094c4.199-0.153,7.633-2.445,11.359-3.909c1.364-0.538,2.675-1.21,4.043-1.834
		c-0.237-0.796-0.436-1.461-0.715-2.4c0.709,0.161,1.194,0.186,1.604,0.374c1.12,0.518,2.253,1.031,3.297,1.68
		c3.009,1.865,6.08,1.759,9.207,0.415c1.664-0.713,3.266-1.572,4.953-2.22c1.606-0.616,3.254-1.228,4.94-1.512
		c3.012-0.506,5.688,0.438,7.986,2.446c1.66,1.451,3.33,2.886,5.388,4.08c-0.166-0.56-0.292-1.137-0.503-1.679
		c-0.876-2.249-1.32-4.562-1.363-6.986c-0.062-3.591,2.336-5.733,5.552-4.425c1.24,2.525,2.202,4.774,3.419,6.875
		c1.25,2.152,3.278,3.423,5.684,4.051c2.856,0.75,5-0.813,5.46-4.157c-0.925,0.05-1.825-0.011-2.678,0.162
		c-3.386,0.693-6.068-0.443-7.905-3.249c-1.344-2.051-2.437-4.275-3.491-6.495c-1.267-2.662-2.375-5.401-3.726-8.506
		c2.094-5.397,7.688-8.372,11.826-13.154c-1.548,0.09-2.59,0.207-3.635,0.199c-2.636-0.021-4.373-1.208-5.276-3.678
		c-0.936-2.55-0.874-5.173-0.291-7.79c1.324-5.958,0.902-5.09,5.981-5.53c0.41-0.034,0.818-0.104,1.222-0.169
		c2.85-0.445,3.581-2.061,2.038-4.53c-0.522-0.834-1.093-1.64-1.622-2.468c-0.082-0.125-0.065-0.319-0.14-0.731
		c4-3.339,5.168-7.593,3.107-12.854c-2.4,0.634-4.295,2.004-6.096,3.572c-1.354-0.927-2.612-1.793-4.18-2.875
		c-1.46,3.514-3.027,6.728-5.685,9.19c-2.506-0.801-3.455-2.774-4.201-5.03c-1.361,0.875-0.396,1.999-0.623,3.268
		c-0.812-1.676-0.945-2.843,0.198-4.195c1.59-1.878,2.239-4.191,2.135-6.667c-0.02-0.535-0.237-1.063-0.445-1.933
		c-1.479,1.703-1.074,4.134-3.185,5.236c-2.466-1.475-4.891-2.951-5.284-6.406c-0.319-2.793-1.339-5.326-3.279-7.558
		c-2.692-3.102-5.027-6.508-7.623-9.698c-1.241-1.524-1.443-3.015-0.745-4.799c1.472-3.751,2.795-7.56,4.333-11.282
		c0.614-1.487,1.429-3.001,2.516-4.162c1.871-1.992,3.129-4.158,3.551-6.879c0.186-1.194,0.622-2.403,1.194-3.472
		c0.955-1.783,1.813-2.07,3.851-1.685c1.448,0.272,1.448,0.272,2.625-1.231c-0.383-0.643-0.793-1.331-1.164-1.955
		c0.249-1.18,0.975-1.581,2-1.518c1.477,0.087,2.951,0.264,4.425,0.298c1.548,0.036,3.124,0.106,4.636-0.135
		c1.158-0.184,1.147-0.54,0.107-2.201c0.701-0.407,1.473-0.858,2.416-1.407c-1.234-1.025-2.05-0.643-2.792-0.523
		c-1.462,0.23-2.915,0.521-4.358,0.858c-4.484,1.047-8.83-0.263-13.236-0.688c-1.96-0.187-3.94-0.238-5.913-0.244
		c-0.786-0.005-1.575,0.283-2.591,0.485c0.16,1.36,0.321,2.562,0.442,3.765c0.275,2.793-0.479,3.813-3.277,3.983
		c-2.091,0.13-3.976,0.441-5.81,1.681c-0.901,0.61-2.469,0.237-3.979,0.321c-0.143,0.443-0.439,1.114-0.572,1.817
		c-0.271,1.422-0.771,2.579-2.107,3.425c-1.77,1.124-3.561,2.154-5.685,2.102c-1.167-0.028-2.188-0.68-2.591-1.949
		c-0.192-0.599-0.4-1.193-0.716-2.131c-0.414,0.892-0.648,1.486-0.956,2.044c-0.829,1.511-2.137,1.918-3.45,0.791
		c-0.886-0.76-1.527-1.896-2.028-2.977c-0.435-0.94-0.518-2.041-0.789-3.215c-0.539,0.196-0.952,0.256-1.256,0.468
		c-2.1,1.468-3.617,1.394-5.338-0.483c-0.934-1.018-1.696-2.191-2.511-3.265c-1.299,0.014-1.621,0.834-1.729,1.782
		c-0.211,1.829,0.336,3.44,1.641,4.727c1.457,1.434,2.105,3,1.569,5.097c-0.277,1.089-0.031,2.295-0.104,3.444
		c-0.056,0.876-0.242,1.743-0.384,2.702c-3.083,0.321-5.34-0.833-7.245-2.813c-0.912-0.943-1.708-2.001-2.567-2.999
		c-2.102-2.438-4.974-3.726-7.728-5.2c-1.592-0.852-3.167-1.756-4.667-2.756c-0.928-0.618-1.724-0.701-2.752-0.276
		c-5.028,2.077-5.921,4.628-3.332,9.496c0.918,1.729,1.785,3.504,2.454,5.339c0.335,0.921,0.17,2.019,0.236,3.128
		c-2.043-0.132-2.989-1.13-3.449-2.672c-0.162-0.547-0.239-1.127-0.299-1.697c-0.288-2.706-1.201-5.054-3.308-6.945
		c-1.522-1.37-2.97-2.885-4.165-4.54c-1.482-2.053-2.917-4.212-3.922-6.523c-1.241-2.853-0.024-5.44,1.695-7.771
		c2.539-0.018,2.612,0.036,3.157,2.106c0.354,1.355,0.661,2.724,1.11,4.046c0.706,2.07,0.92,2.143,3.455,1.64
		c-0.179-0.533-0.315-1.053-0.525-1.543c-0.742-1.738-1.652-3.419-2.241-5.207c-1.369-4.149-0.488-8.004,2.096-11.42
		c1.533-2.028,3.336-3.852,5.005-5.777c1.703-1.971,3.15-4.105,2.981-6.845c-0.266-4.262,2.275-7.094,4.951-9.782
		c1.312-1.322,2.943-2.422,4.61-3.268c1.466-0.741,1.908-1.853,1.725-3.183c-0.175-1.271-0.619-2.572-1.246-3.692
		c-0.621-1.11-1.135-2.17-1.099-3.454c0.06-2.254-1.236-3.668-3-4.764c-1.609-1-3.241-1.958-4.853-2.949
		c-0.56-0.342-1.127-0.688-1.64-1.094c-2.465-1.963-2.635-2.372-1.21-5.118c1.194-2.295,1.198-4.267-0.458-6.384
		c-2.539-3.248-0.375-9.693,1.988-11.536c1.229-0.958,2.646-1.339,4.184-0.878c2.201,0.661,4.368,1.451,6.592,2.025
		c1.415,0.365,2.903,0.486,4.367,0.608c0.408,0.033,0.846-0.32,1.348-0.745c-6.778-1.112-10.695-6.437-15.473-10.468
		c-0.171,0.144-0.346,0.288-0.519,0.433c0.921,1.783,1.841,3.568,2.826,5.477c-3.607,0.221-4.551-0.488-4.371-3.568
		c0.128-2.191,0.73-4.354,1.151-6.704c-0.436,0.047-0.934,0.099-1.585,0.169c-0.283-0.807-0.578-1.642-1.003-2.861
		c-0.197,0.697-0.374,1.07-0.395,1.452c-0.025,0.489,0.008,1,0.134,1.473c1.689,6.336-0.652,12.006-2.944,17.667
		c-0.546,1.351-1.324,2.654-3.058,3.104c-1.816-2.574-0.974-6.125-3.202-8.677c-1.2,1.39-0.007,2.741-0.438,3.924
		c-1.572-0.016-1.75-0.131-5.529-3.567c-0.886,3.387-1.19,6.653-0.761,9.993c-5.851-0.28-9.164-6.183-6.689-11.514
		c2.282-4.921,5.618-9.065,9.313-12.971c1.115-1.18,2.061-2.52,3.084-3.786c0.581-0.421,1.286-0.74,1.72-1.279
		c1.293-1.607,2.701-3.018,4.595-3.93c0.656-0.317,1.411-0.743,1.458-1.9c-1.877,0.286-3.48,0.844-4.594,2.212
		c-1.215,1.498-2.244,3.149-3.354,4.732c-2.814,1.988-5.65,3.942-8.419,5.991c-0.635,0.467-1.11,1.204-1.533,1.893
		c-0.558,0.91-0.881,1.978-1.503,2.83c-1.362,1.867-2.721,3.894-5.653,2.752c-0.573,1.847-0.434,3.598,0.172,5.18
		c1.383,3.604,2.977,7.127,4.488,10.683c0.541,1.271,1.093,2.537,1.485,3.446c-2.024,2.18-3.911,3.999-5.541,6.021
		c-2.266,2.809-3.386,5.984-2.356,9.659c0.858,3.059-0.82,5.602-1.808,8.269c-0.427,1.155-0.947,2.276-1.478,3.388
		c-0.958,2.004-1.204,3.847-0.134,6.051c1.234,2.537-0.109,5.252-2.749,6.552c-3.419,1.682-6.949,1.741-10.65,0.62
		c-0.603-2.53,0.179-4.708,1.441-6.784c0.297-0.489,0.695-0.915,1.038-1.379c1.716-2.325,2.609-4.84,2.411-7.821
		c-0.354-5.364,1.211-10.42,2.929-15.412c0.619-1.803,1.642-3.365,3.138-4.651c1.556-1.338,2.997-2.821,4.408-4.32
		c1.115-1.183,1.926-2.563,2.254-4.681c-1.471,1.639-2.575,2.918-3.739,4.146c-0.448,0.47-0.988,0.88-1.553,1.204
		c-1.446,0.834-2.687,0.631-3.706-0.697c-1.147-1.495-1.856-3.213-1.049-5.067c0.716-1.646,1.692-3.18,2.573-4.754
		c0.261-0.466,0.587-0.898,0.756-1.54c-1.349,0.641-2.319,2.194-4.22,1.502c-0.377-1.483,0.261-2.801,1.074-4.024
		c0.863-1.302,1.91-2.483,2.755-3.795c0.55-0.854,0.881-1.85,1.463-3.112c-2.211,0.211-2.787,1.611-3.539,2.799
		c-0.74,1.169-1.476,2.344-2.323,3.691c-0.337-4.036,3.215-9.295,7.09-10.94c0.154-1.435,0.21-2.807,0.471-4.14
		c0.244-1.25,0.706-2.458,1.072-3.687c-0.162-0.082-0.324-0.166-0.484-0.249c-1.063,1.156-2.127,2.312-3.545,3.854
		c-0.108-1.587,0.546-2.337,1.026-3.057c1.246-1.866,1.452-3.791,0.723-5.879c-0.271-0.775-0.525-1.568-0.67-2.374
		c-0.331-1.816-0.339-3.611,0.67-5.268c2.092-3.438,4.18-6.878,6.396-10.521c1.966,0,3.982,0,6,0
		c0.003-0.143,0.006-0.286,0.009-0.427c-0.551-0.052-1.134-0.003-1.645-0.174c-0.823-0.271-1.648-0.603-2.376-1.06
		c-0.852-0.533-1.603-1.229-2.51-1.94c0.792-1.813,2.444-2.283,4.355-2.246c1.828,0.036,3.342-0.499,4.732-2.521
		c-2.197,0.527-3.907,0.938-5.966,1.432c-0.101-0.885-0.417-1.691-0.236-2.363c1.068-3.971,3.624-6.992,6.681-9.549
		c1.527-1.279,3.599-0.991,5.489-0.869c1.24,0.077,2.444,0.208,3.616-1.151c-0.729,0.087-1.157,0.13-1.584,0.188
		c-0.97,0.129-1.94,0.386-2.908,0.375c-2.045-0.021-3.071-1.34-2.332-3.254c0.549-1.422,1.541-2.683,2.401-3.969
		c0.613-0.914,1.338-1.753,1.838-2.78c-1.801,0.434-2.936,1.616-3.885,3.049c-0.951,1.438-1.917,2.864-2.917,4.268
		c-2.004,2.813-4.945,4.581-7.641,6.579c-2.63,1.953-4.721,4.333-6.535,6.995c-1.225,1.795-2.574,3.412-4.624,4.315
		c-1.581,0.697-3.104,0.845-4.746,0.067c-2.227-1.055-4.575-1.855-6.786-2.944c-1.611-0.79-3.187-1.737-4.578-2.864
		c-0.77-0.623-1.345-1.691-1.623-2.669c-0.542-1.907,0.816-3.658,2.777-3.676c2.125-0.023,4.005-0.601,5.823-1.713
		c2.429-1.489,5.118-1.601,7.877-1.076c1.178,0.224,2.391,0.28,3.587,0.413c0.025-0.162,0.05-0.321,0.076-0.481
		c-2.215-0.596-4.413-1.277-6.657-1.742c-0.731-0.152-1.672,0.083-2.36,0.444c-4.239,2.235-8.671,2.811-13.372,1.963
		c-2.424-0.439-4.891-0.656-7.347-0.894c-1.042-0.101-1.648-0.686-2.098-1.501c-0.705-1.285-0.45-2.113,0.893-2.805
		c3.232-1.662,6.662-2.313,10.282-1.902c1.063,0.121,2.132,0.208,3.188,0.379c2.979,0.487,4.945-1.526,7.7-2.764
		c-1.271-1.049-2.193-1.809-3.149-2.599c0.755-1.24,1.999-1.432,3.165-1.798c1.485-0.468,2.973-0.949,4.408-1.544
		c0.478-0.199,0.799-0.772,1.058-1.37c-1.62-0.159-2.751,2.03-4.592,0.499c0.352-0.458,0.711-0.927,1.378-1.795
		c-2.685,0-4.997,0-7.887,0c1.818-1.545,2.22-3.096,2.475-4.729c0.177-1.136,0.381-2.276,0.682-3.385
		c0.619-2.261,1.238-2.757,3.542-2.242c1.402,0.313,2.745,1.056,4.016,1.781c2.287,1.311,4.539,1.108,6.828-0.991
		c-1.057,0.188-1.833,0.333-2.613,0.468c-1.563,0.272-2.727-0.237-3.469-1.692c-0.333-0.651-0.67-1.376-1.209-1.828
		c-0.494-0.416-1.258-0.696-1.909-0.705c-1.695-0.028-2.262-0.499-2.138-2.087c0.185-2.381,1.828-4.13,4.219-4.441
		c2.104-0.273,4.104-0.009,5.888,1.265c1.826,1.305,3.625,1.02,5.937-0.266c-4.194-1.15-7.956-2.182-11.251-4.66
		c0.813-2.374,1.538-4.712,2.422-6.99c0.632-1.629,2.167-2.278,3.806-1.646c1.22,0.468,2.349,1.17,3.526,1.75
		c1.145,0.564,2.299,1.109,3.45,1.664c0.117-0.142,0.233-0.284,0.35-0.424c-0.289-0.396-0.504-0.89-0.878-1.166
		c-0.862-0.631-1.837-1.106-2.703-1.73c-2.259-1.63-4.642-2.762-7.551-2.46c-0.88,0.09-1.821-0.08-2.689-0.303
		c-0.575-0.146-1.477-0.551-1.514-0.916c-0.063-0.615,0.263-1.528,0.745-1.889c1.039-0.78,2.243-1.373,3.446-1.881
		c1.891-0.796,3.872-1.387,5.752-2.206c1.516-0.659,2.651-1.769,3.219-3.291c-0.129-0.147-0.26-0.292-0.392-0.437
		c-0.468,0.35-0.928,0.711-1.404,1.051c-1.2,0.86-2.321,1.878-3.627,2.521c-1.852,0.912-2.953,0.177-3.425-2.254
		c-0.806,0.582-1.497,1.114-2.219,1.596c-1.515,1.011-3.055,1.98-4.998,1.797c-1.489-0.139-1.833-0.486-1.903-2.001
		c-0.043-0.906-0.093-1.822,0.003-2.718c0.204-1.907-0.475-3.209-2.458-3.805c-0.236-3.726-0.546-7.418,2.183-10.554
		c1.765,0.082,2.902,1.138,4.089,2.159c1.175,1.007,2.425,1.93,3.261,2.588c2.467-0.635,4.464-1.148,6.761-1.74
		c-0.5-0.352-0.805-0.715-1.167-0.787c-0.966-0.197-1.963-0.405-2.936-0.363c-2.316,0.099-3.926-1.093-5.235-2.754
		c-1.524-1.936-2.913-3.979-4.508-6.176c0.695-1.208,1.417-2.465,2.136-3.716c1.479-0.116,2.839-0.226,4.574-0.365
		c-0.45-0.702-0.605-1.154-0.92-1.404c-1.163-0.916-2.356-1.797-3.58-2.633c-2.033-1.383-2.894-3.331-2.731-5.721
		c0.105-1.527,0.38-3.044,0.599-4.714c2.079,0.175,3.858,0.326,5.892,0.496c0.812,2.34,1.636,4.721,2.442,7.047
		c2.729-0.236,3.777-1.604,3.042-3.846c-0.278-0.844-0.768-1.622-1.183-2.417c-0.529-1.019-1.17-1.99-1.599-3.046
		c-0.428-1.05,0.063-2.256,0.945-2.79c1.052-0.635,1.742,0.081,2.331,0.746c0.592,0.671,1.014,1.493,1.547,2.223
		c0.48,0.661,0.936,1.367,1.53,1.912c0.946,0.864,1.674,0.768,2.478-0.234c0.918-1.146,1.787-2.328,2.669-3.481
		c1.898,0.239,3.152,1.3,4.412,2.354c1.272,1.065,2.587,1.99,4.41,1.772c0.132-1.131-0.611-1.304-1.288-1.582
		c-2.482-1.022-4.333-2.852-6.51-4.879c1.373-0.552,2.18-0.553,3.153,0.253c0.782,0.647,1.843,1.238,2.823,1.318
		c2.91,0.237,5.137,1.542,7,3.686c0.628,0.724,1.374,1.348,2.451,1.741c-0.147-0.378-0.211-0.824-0.458-1.12
		c-0.734-0.877-1.446-1.819-2.34-2.514c-1.98-1.538-3.687-3.131-2.706-6.006c-5.166-1.741-8.953-4.931-12.146-8.922
		c-1.11-1.39-1.299-2.382-0.473-2.972c0.742-0.532,2.006-0.112,2.977,0.999c0.267,0.305,0.511,0.627,0.911,1.122
		c1.86-0.345,3.77-0.699,5.599-1.038c0.187-2.216,0.349-4.128,0.533-6.325c-3.642-1.342-4.804-5.247-7.247-8.405
		c1.626-0.597,2.857,0.083,4.032,0.391c1.906,0.505,3.669,0.484,5.532-0.198c1.924-0.708,3.948-1.661,5.907-1.611
		c1.938,0.047,3.846,1.211,5.875,1.926c0.703-1.128,0.083-1.629-0.834-2.007c-1.596-0.66-3.147-1.491-4.804-1.931
		c-2.498-0.661-3.519-2.412-3.646-4.685c-0.086-1.514,0.173-3.122,0.634-4.572c0.524-1.647,1.222-1.815,2.847-1.249
		c0.605,0.209,1.207,0.428,2.129,0.29c-0.564-0.585-1.139-1.159-1.683-1.759c-0.959-1.061-0.685-1.987,0.728-2.244
		c1.014-0.185,2.059-0.191,3.299-0.292c-0.524-1.181-1.272-1.644-2.206-2.052c-0.866-0.38-1.717-0.95-2.368-1.635
		c-0.879-0.928-0.801-2.095-0.215-3.204c0.113-0.217,0.258-0.449,0.45-0.587c3.006-2.138,3.533-5.333,3.722-8.677
		c0.008-0.148,0.14-0.287,0.292-0.576c3.74,0.758,6.887,2.736,9.875,5.329c0.616-0.852,1.072-1.481,1.624-2.248
		c0.458,0.308,0.919,0.606,1.371,0.922c3.521,2.479,3.784,3.55,1.621,7.355c-0.754,1.327-1.692,2.55-2.743,4.112
		c1.837-0.022,2.847-0.867,3.574-1.922c1.533-2.228,3.033-4.491,4.345-6.853c1.342-2.409,1.803-2.75,4.432-2.028
		c0.705,0.197,1.397,0.502,2.033,0.865c2.464,1.406,3.036,3.618,1.607,6.032c-0.628,1.059-1.266,2.114-1.876,3.184
		c-0.062,0.108,0.028,0.302,0.067,0.619c1.186,0.105,1.64-0.726,2.103-1.584c0.51-0.939,0.945-1.947,1.61-2.764
		c1.543-1.897,3.679-2.722,6.072-2.839c2.647-0.13,5.308-0.14,7.33-2.276c0.153-0.162,0.485-0.34,0.647-0.28
		c2.149,0.809,3.365-0.616,4.668-1.878c0.156-0.148,0.461-0.143,0.836-0.251c0.325,0.621,0.651,1.247,1.03,1.974
		c3.94,0.344,7.871,0.212,11.65-1.134c1.203-0.428,2.383-1.186,3.309-2.069c2.302-2.207,4.757-2.531,7.7-1.444
		c1.981,0.733,4.108,1.142,6.208,1.467c1.288,0.197,2.647-0.03,3.456-1.315c-0.131-1.579-3.115-2.549-0.792-4.788
		c3.582,2.783,7.75,2.148,11.846,2.087c2.023-0.032,4.122-0.428,6.122,0.744c-0.245,2.581-1.572,4.611-3.125,6.561
		c-1.704,2.138-2.629,4.525-2.114,7.478c1.562,0.453,3.111,0.9,4.843,1.398c-0.229,0.597-0.348,1.044-0.565,1.439
		c-1.187,2.16-2.519,4.25-3.566,6.476c-1.418,3.021-3.737,4.947-6.724,6.203c-0.909,0.383-1.81,0.799-2.743,1.103
		c-3.469,1.129-6.013,3.539-7.928,6.416c-4.011,6.021-9.061,10.83-15.366,14.325c-1.574,0.873-2.755,2.076-3.661,3.574
		c-1.151,1.909-2.747,3.328-4.823,4.045c-2.851,0.984-3.842,3.102-4.072,5.858c-0.115,1.36,0.398,3.246-0.921,3.893
		c-1.704,0.834-3.757,1.009-5.685,1.311c-0.829,0.13-1.722-0.132-2.732-0.229c1.754,3.155,3.123,3.395,12.334,2.332
		c0.338,0.551,0.708,1.152,1.103,1.798c2.689-0.531,4.751-1.922,6.579-3.989c-0.18,3.9-5.93,11.596-10.737,14.456
		c-0.103-0.522-0.16-0.984-0.284-1.426c-0.545-1.944-1.406-2.351-3.294-1.55c-0.373,0.159-0.788,0.334-1.051,0.621
		c-1.703,1.859-3.929,2.612-6.29,3.151c-1.04,0.238-2.03,0.681-3.064,0.948c-1.214,0.313-1.888,1.092-2.524,2.145
		c-0.66,1.087-1.585,2.067-2.565,2.89c-1.437,1.204-1.5,1.126-1.884,3.353c1.287,0.14,2.191-0.545,2.98-1.335
		c0.867-0.871,1.614-1.866,2.435-2.787c1.623-1.824,3.423-3.258,6.047-3.41c2.376-0.137,4.737-0.533,7.108-0.784
		c0.476-0.052,0.965,0.032,1.853,0.071c-2.686,4.935-4.978,9.767-11.205,10.777c0.444,1.588,1.893,3.122-0.564,4.545
		c3.312,1.03,5.352-0.285,7.198-1.935c1.158-1.037,2.174-2.26,3.107-3.51c0.375-0.5,0.362-1.296,0.583-2.193
		c2.299-0.116,4.769-0.426,7.216-0.312c2.698,0.126,4.888-0.786,6.634-2.652c1.914-2.044,4.212-3.055,6.921-3.38
		c1.06-0.128,2.098-0.418,3.155-0.588c1.923-0.313,3.519-1.078,4.879-2.59c1.943-2.162,4.648-2.573,7.292-1.921
		c3.177,0.783,6.223,2.064,9.357,3.029c1.717,0.526,3.487,1.059,5.257,1.176c1.234,0.081,2.712-0.237,3.743-0.9
		c2.777-1.794,5.746-1.917,8.802-1.417c4.867,0.799,9.705,1.75,14.565,2.605c2.125,0.375,4.33,0.624,6.33-0.309
		c2.328-1.089,4.671-0.807,6.993-0.4c2.271,0.398,4.406,0.098,6.567-0.502c5.557-1.54,11.032,1.268,13.059,6.736
		c0.6,1.618,1.013,3.306,1.565,4.942c0.291,0.854,0.599,1.73,1.072,2.488c1.601,2.551,1.582,5.075-0.226,7.428
		c-2.506,3.256-5.25,6.33-7.709,9.611c-1.866,2.484-3.535,5.128-5.123,7.803c-0.51,0.862-0.572,2.044-0.658,3.094
		c-0.104,1.31-0.205,2.664,0.006,3.95c0.637,3.908-1.051,7.125-3.058,10.145c-1.829,2.751-3.206,5.608-3.112,8.913
		c0.137,4.811-2.772,7.938-5.783,10.986c-1.375,1.389-3.062,2.481-4.677,3.607c-0.875,0.608-1.436,1.288-1.572,2.36
		c-0.113,0.897-0.377,1.771-0.518,2.665c-0.206,1.352-0.719,2.573-1.759,3.448c-1.512,1.279-2.136,2.905-2.039,4.805
		c0.092,1.885-0.793,3.074-2.321,4.019c-1.887,1.169-3.755,2.383-5.527,3.711c-0.965,0.723-1.871,1.628-2.536,2.629
		c-0.831,1.254-1.773,1.785-3.28,1.593c-4.608-0.582-8.948,1.015-13.368,1.856c-1.359,0.258-2.606,1.345-3.795,2.206
		c-1.191,0.867-2.259,1.91-3.361,2.902c-1.312,1.178-2.666,2.191-4.584,2.076c-0.374-0.023-0.768,0.39-1.52,0.801
		c2.045,0.54,3.597,0.501,5.104-0.296c2.765-1.457,5.501-2.971,8.302-4.357c1.913-0.948,3.873-1.823,5.884-2.527
		c1.135-0.398,2.419-0.54,3.633-0.523c1.627,0.025,2.381,0.948,2.236,2.579c-0.124,1.382-0.415,2.749-0.657,4.255
		c0.942,1.626,2.589,2.493,4.391,3.172c1.768,0.668,3.567,1.286,5.268,2.103c2.162,1.037,2.29,2.927,0.355,4.414
		c-1.304,1.001-2.618,2.026-4.059,2.8c-1.204,0.648-2.571,1.051-3.916,1.368c-0.941,0.224-1.962,0.173-2.948,0.162
		c-1.881-0.021-3.908-0.562-5.599-0.026c-1.61,0.509-2.821,2.19-4.294,3.233c-3.223,2.285-6.009,4.897-6.802,8.352
		c-2.991,0.964-5.476,1.762-7.96,2.563c-1.096,0.355-2.178,0.753-3.282,1.069c-1.748,0.5-3.427,0.258-5.013-0.617
		c-1.01-0.555-2.008-1.131-3.02-1.682c-2.634-1.437-4.611-1.011-6.698,1.454c0.132,1.112,0.903,1.383,1.889,1.503
		c3.758,0.456,7.516,0.908,11.26,1.453c4.15,0.604,8.293,1.251,12.417,2.003c1.273,0.233,2.493,0.818,3.703,1.323
		c4.877,2.036,8.761,0.395,11.5-3.745c0.226-0.343,0.44-0.696,0.656-1.044c2.528-4.047,7.361-5.382,11.563-3.193
		c1.468,0.765,2.13,1.647,3.307,4.41c0.142,0.077,0.293,0.235,0.42,0.216c4.108-0.614,6.894,2.202,10.095,3.906
		c1.088,0.578,2.102,1.3,3.164,1.926c1.3,0.766,2.674,1.213,4.22,1.155c2.592-0.096,4.308,1.396,5.622,3.402
		c0.58,0.886,1.007,1.899,1.348,2.906c1.047,3.094,2.754,5.784,4.881,8.224c2.053,2.354,4.052,4.768,6.262,6.966
		c1.132,1.125,2.561,2.181,4.05,2.677c6.418,2.143,8.733,7.063,9.31,13.208c0.286,3.033,0.341,6.084,0.533,9.125
		c0.579,9.218,2.851,18.001,6.859,26.325c0.535,1.106,1.239,2.131,1.831,3.208c2.313,4.227,4.058,8.662,4.411,13.503
		c0.328,4.495,2.271,8.004,5.862,10.659c0.395,0.291,0.737,0.647,0.978,0.858c0,2.678,0,5.191,0,7.688
		c1.318,0.161,1.318,0.161,3.864-2.194c0.739,0.328,1.604,0.604,2.353,1.072c3.815,2.383,8.084,3.658,12.303,5.025
		c2.839,0.921,5.548,1.94,7.713,4.153c0.762,0.778,1.927,1.281,3.001,1.612c2.035,0.63,3.448,1.863,4.329,3.753
		c1.321,2.83,2.557,5.697,3.938,8.498c1.008,2.053,2.086,4.084,3.318,6.006c1.267,1.973,3.014,3.48,5.46,4.146
		c-0.54,2.758,1.222,3.661,3.264,4.465c2.028,0.799,4.029,1.696,5.818,2.777c-1.545,1.104-3.207,1.849-4.217,3.115
		c-1.628,2.039-2.161,4.58-1.735,7.23c0.641,3.978,2.165,7.519,4.753,10.68c3.018,3.692,5.879,7.521,8.639,11.414
		c2.132,3.006,3.719,6.301,3.713,10.513c-0.27-0.823-0.407-1.295-0.581-1.75c-0.755-1.962-1.621-2.572-3.736-2.486
		c-1.31,0.051-2.617,0.283-3.93,0.345c-2.808,0.129-5.143-0.845-6.955-3.044c-0.728-0.89-1.567-1.686-2.335-2.541
		c-1.976-2.203-4.469-2.614-7.213-2.062c-1.127,0.225-2.274,0.466-3.329,0.904c-2.751,1.131-5.396,1.047-8.131-0.149
		c-2.348-1.027-4.7-0.12-6.213,2.35c0.727,0.078,1.314,0.135,1.899,0.207c1.696,0.207,3.442,0.229,5.075,0.671
		c1.819,0.49,3.534,0.584,5.337,0.063c2.61-0.748,5.228-1.417,8.001-1.295c1.497,0.064,2.471,0.544,3.006,1.987
		c1.159,3.127,3.63,4.942,6.446,6.492c9.607,5.281,17.093,12.494,20.735,23.144c0.953,2.787,2.179,5.495,2.92,8.334
		c0.821,3.136-0.2,5.922-2.241,8.477c-2.355,2.938-5.469,4.967-8.235,7.417c-1.779,1.575-3.474,3.262-5.053,5.041
		c-0.734,0.821-1.103,1.969-1.625,2.939c0.316,0.229,0.485,0.424,0.56,0.392c2.504-1.021,4.377-0.203,5.964,1.852
		c0.851,1.1,1.917,2.039,2.911,3.02c0.963,0.948,2.081,1.705,3.484,1.613c1.94-0.124,3.729,0.07,5.277,2.062
		c0.94-1.987,1.751-3.645,2.511-5.322c0.778-1.725,1.416-3.517,2.268-5.203c1.34-2.646,3.25-4.508,6.534-4.385
		c4.926,0.181,9.86,0.255,14.789,0.405c1.317,0.044,2.628,0.205,3.942,0.292c0.323,0.024,0.894,0.067,0.935-0.048
		c0.752-2.089,2.132-0.83,3.166-0.515c5.262,1.613,10.555,3.161,15.721,5.054c4.576,1.68,8.736,4.14,12.31,7.591
		c3.07,2.965,4.916,6.588,6.174,10.522c0.694,2.171,0.854,4.51,1.281,6.768c0.134,0.706,0.368,1.397,0.556,2.095
		C515.447,677.461,515.447,679.112,515.447,680.758z M277.745,536.799c1.221-2.094,1.691-5.748,0.943-7.405
		c-0.207-0.459-0.792-0.75-1.429-1.317C277.437,531.244,277.585,533.918,277.745,536.799z M267.919,512.841
		c-1.715,1.663-1.725,1.841-0.222,3.213C267.773,514.936,267.832,514.09,267.919,512.841z"/>
	<path fill-rule="evenodd" clip-rule="evenodd" fill="#FFFFFF" d="M66.865,238.184c0.212,0.119,0.43,0.228,0.635,0.359
		c2.038,1.314,1.983,1.271,3.489-0.521c0.668-0.796,1.563-1.424,2.419-2.039c0.858-0.618,1.797-1.124,2.814-1.75
		c-0.224-0.673-0.42-1.255-0.705-2.113c1.962-0.086,3.806-0.168,5.824-0.255c-0.344-2.085-1.755-2.917-3.285-3.449
		c-1.779-0.619-3.683-0.888-5.463-1.506c-1.296-0.448-2.571-1.089-3.681-1.887c-0.637-0.46-0.925-1.407-1.377-2.146
		c1.407-1.388,3.424-1.553,4.286-3.398c-0.252-0.21-0.464-0.43-0.713-0.588c-3.886-2.464-3.875-6.961-2.887-9.857
		c0.336-0.989,0.966-1.686,2.06-1.912c0.554-0.115,1.08-0.369,1.631-0.563c-0.008-1.273-2.143-2.07-0.389-3.794
		c1.481,0.182,3.237,0.396,5.106,0.625c0.127,0.938,0.169,1.751,0.354,2.532c0.396,1.673,1.818,2.244,3.062,1.102
		c0.902-0.828,1.71-0.673,2.711-0.478c1.646,0.323,3.244,1.139,5.421,0.671c-0.631-0.971-1.09-1.785-1.655-2.519
		c-0.698-0.908-1.583-1.686-2.215-2.637c-1.856-2.795-1.022-6.034,1.981-7.49c1.394-0.674,2.925-1.077,4.408-1.561
		c0.778-0.253,1.587-0.421,2.385-0.611c2.176-0.521,3.835-1.57,4.894-3.709c1.216-2.461,3.738-3.618,5.912-5.085
		c1.294-0.875,2.658-1.658,3.873-2.63c1.138-0.914,2.123-2.021,3.245-3.112c1.684,0.886,2.901,2.404,3.814,4.187
		c0.967,1.881,1.339,3.715-0.456,5.405c-0.882,0.829-0.886,1.9-0.493,2.982c0.307,0.85,0.635,1.692,1.033,2.751
		c-3.404,2.964-7.492,5.562-8.312,10.763c4.197,1.695,6.583-1.714,9.566-3.185c0.874,2.108,0.398,4.007-1.477,4.802
		c-1.296,0.552-2.852,0.742-4.275,0.685c-1.854-0.074-3.694-0.556-6.035-0.942c0.356,1.181,0.585,1.992,0.843,2.794
		c0.727,2.258,0.506,2.895-1.588,3.957c-1.735,0.882-3.516,1.679-5.698,2.71c2.433,1.043,4.383-0.491,6.433,0.079
		c0.835,1.214,1.134,2.645,1.054,4.143c-0.102,1.924-0.654,2.443-2.553,2.509c-1.234,0.042-2.472-0.023-3.706,0.033
		c-0.521,0.023-1.035,0.23-1.863,0.426c0.726,0.654,1.184,1.096,1.671,1.502c1.335,1.111,1.577,1.972,0.413,3.282
		c-1.178,1.325-2.658,2.382-4.051,3.597c-1.055-0.691-1.858-1.219-2.806-1.841c-0.22,0.417-0.426,0.804-0.657,1.239
		c-2.176-0.381-3.201-1.959-3.607-3.865c-0.382-1.812-0.389-3.706-0.564-5.571c-1.409,1.343-1.798,3.13-1.035,6.058
		c0.53,2.036,1.334,4.001,2.124,6.317c-2.14,0.185-4.122,0.357-6.37,0.552c0.94,1.562,1.707,2.841,2.595,4.314
		c-1.056,0.54-1.807,1.078-2.643,1.313c-1.697,0.484-2.803,1.538-3.742,2.991c-1.062,1.643-2.342,3.145-3.616,4.823
		C71.436,244.586,68.426,242.094,66.865,238.184z"/>
	<path fill-rule="evenodd" clip-rule="evenodd" fill="#FFFFFF" d="M103.782,265.608c0.78,0.978,1.463,1.831,2.145,2.685
		c0.44-1.34-0.387-2.084-0.956-2.858c-1.358-1.85-2.027-3.626-0.058-5.37c-0.073-0.278-0.064-0.485-0.161-0.578
		c-2.436-2.329-2.495-3.194-0.592-5.856c0.848-1.188,1.543-2.488,2.348-3.801c3.528,0.65,5.815,2.95,7.402,5.925
		c2.031,3.812,2.398,8.022,2.194,12.257c-0.122,2.538-0.537,5.061-0.763,7.071c0.632,1.737,1.199,3.049,1.582,4.412
		c0.431,1.531,0.966,2.876,2.253,3.989c0.86,0.741,1.287,1.984,2.021,3.19c2.184,0.732,4.666,1.554,7.143,2.395
		c1.624,0.55,3.224,0.457,4.846-0.034c1.493-0.453,2.987-0.951,4.519-1.22c1.924-0.339,2.649,0.096,3.171,1.511
		c0.559,1.519,0.232,2.584-1.226,3.61c-0.806,0.566-1.69,1.021-2.55,1.508c-1.758,0.995-3.027,2.369-4.069,4.155
		c-1.528,2.616-3.361,5.06-5.18,7.491c-0.62,0.828-1.508,1.546-2.425,2.03c-0.634,0.332-1.642,0.449-2.278,0.177
		c-0.998-0.426-0.715-1.526-0.605-2.42c0.03-0.24,0.144-0.47,0.224-0.702c0.393-1.167,0.851-2.319,1.167-3.509
		c0.498-1.868,1.41-3.264,3.376-3.891c1.386-0.443,2.632-1.214,3.584-2.585c-3.218,0.81-6.102,0.612-8.302-2.575
		c-0.483,2.567-1.346,4.535-3.561,6.233c-0.221-0.964-0.368-1.616-0.52-2.267c-0.361-1.536-0.794-2.009-2.357-1.941
		c-1.21,0.052-2.42,0.381-3.604,0.693c-1.254,0.332-2.476,0.79-4.091,1.317c0.284-0.894,0.454-1.431,0.674-2.122
		c-1.573-0.562-3.139-1.119-4.832-1.722c0.386-0.776,0.628-1.264,1.021-2.047c-2.982-0.833-4.469-3.195-5.997-5.709
		c0.138-0.367,0.256-0.844,0.49-1.257c0.824-1.454,1.496-1.689,3.008-1.04c1.097,0.47,2.164,1.01,3.608,1.69
		c-0.876-2.466-2.477-3.484-4.337-4.207c-0.924-0.36-1.716-0.66-2.096-1.821c-0.261-0.8-0.876-1.75-2.201-1.596
		c-0.465,0.052-1.008-0.563-1.751-1.02c-0.643,1.844-1.272,3.651-1.948,5.597c-4.489-1.815-7.538-5.06-10.566-8.732
		c0.973-0.604,1.776-1.102,2.732-1.694c-0.178-0.556-0.392-1.141-0.549-1.739c-0.329-1.244,0.156-1.759,1.396-1.304
		c0.809,0.298,1.576,0.854,2.215,1.448c0.839,0.781,1.503,1.747,2.302,2.573c0.409,0.423,0.954,0.716,1.435,1.065
		c0.18-0.111,0.355-0.223,0.536-0.334c-0.351-1.37-0.703-2.738-1.091-4.247c0.557-0.488,1.159-1.016,2.028-1.777
		c-0.646-0.978-1.296-1.969-1.956-2.953c-0.751-1.12-1.429-2.264-0.809-3.664c0.151-0.341,0.511-0.856,0.737-0.839
		c0.4,0.035,0.997,0.334,1.116,0.665c0.874,2.398,2.839,3.773,4.7,5.263c1.138,0.909,2.23,1.872,3.461,2.91
		C102.441,267.241,103.09,266.452,103.782,265.608z"/>
	<path fill-rule="evenodd" clip-rule="evenodd" fill="#FFFFFF" d="M140.646,358.871c-0.384,1.404-0.751,2.739-1.147,4.181
		c-0.9-0.111-1.691-0.209-2.745-0.34c-0.235,0.59-0.484,1.218-0.798,2.009c0.813,0.138,1.359,0.23,2.27,0.383
		c-0.515,0.742-0.891,1.42-1.395,1.983c-1.964,2.188-4.432,2.907-6.869,1.984c0.047-0.591,0.097-1.213,0.155-1.921
		c-0.309,0.022-0.56-0.026-0.75,0.059c-1.497,0.671-3.048,1.257-4.46,2.078c-3.134,1.818-6.544,2.558-10.085,2.964
		c-1.292,0.149-2.631,0.396-3.812,0.911c-1.714,0.749-3.148,0.767-4.455-0.689c-0.156-0.172-0.42-0.251-0.773-0.454
		c0-1.122,0-2.327,0-3.507c1.18-0.778,2.167-0.792,3.12,0.273c0.751,0.835,1.554,0.788,2.644,0.332
		c1.8-0.757,3.749-1.165,5.638-1.711c1.869-0.537,3.721-1.104,4.871-3.12c-0.8,0.191-1.603,0.384-2.404,0.574
		c-1.343,0.316-2.676,0.752-4.041,0.895c-0.711,0.076-1.478-0.366-2.425-0.632c0.939-2.161,2.246-3.57,3.886-4.693
		c1.561-1.068,3.16-2.082,4.714-3.156c1.006-0.695,0.986-0.725,1.028-2.368c-0.655,0.143-1.267,0.244-1.858,0.41
		c-1.674,0.473-3.363,0.44-4.719-0.646c-2.593-2.073-5.44-3.322-9.07-3.209c0.231-1.956,0.435-3.685,0.643-5.44
		c1.542-0.908,1.542-0.908,4.891-0.766c0.099-0.12,0.271-0.233,0.292-0.369c0.366-2.641,1.156-3.293,3.813-3.129
		c2.559,0.157,4.256,1.586,5.399,3.742c0.576,1.086,1.008,2.249,1.479,3.389c0.981,2.37,2.768,3.646,5.298,3.768
		C133.853,352.889,137.395,355.517,140.646,358.871z"/>
	<path fill-rule="evenodd" clip-rule="evenodd" fill="#FFFFFF" d="M106.178,407.436c0.142,0.922,0.287,1.859,0.492,3.21
		c2.441-3.924,4.633-7.652,9.591-8.36c0.361,2.073,0.652,4.084,1.069,6.068c0.317,1.513,0.681,3.033,1.222,4.477
		c0.831,2.232,1.839,4.398,2.753,6.602c0.219,0.525,0.387,1.076,0.541,1.625c0.466,1.663,0.062,2.801-1.45,3.951
		c-2.413,1.837-5.019,2.732-8.065,2.778c-0.255,0.684-0.5,1.27-0.696,1.874c-0.35,1.085-1.241,1.781-2.198,1.567
		c-0.947-0.213-2.034-0.893-2.535-1.697c-0.548-0.877,0.1-1.888,0.986-2.521c0.267-0.19,0.578-0.321,0.834-0.523
		c1.482-1.161,1.741-2.479,0.721-4.097c-0.388-0.618-0.972-1.109-1.43-1.689c-1.265-1.608-1.016-2.725,0.787-3.71
		c0.339-0.186,0.656-0.412,0.993-0.627c-1.063-1.417-2.165-1.63-3.411-0.376c-1.261,1.269-2.24,2.818-3.341,4.245
		c-0.702,0.905-1.351,1.862-2.136,2.689c-0.362,0.383-0.976,0.662-1.506,0.722c-1.379,0.156-2.233-0.826-1.779-2.13
		c0.342-0.984,0.844-2.014,1.56-2.747c1.194-1.228,1.276-2.548,1.006-4.087C99.387,410.12,101.381,407.687,106.178,407.436z"/>
	<path fill-rule="evenodd" clip-rule="evenodd" fill="#FFFFFF" d="M274.73,126.579c-0.986,0.821-2.161,1.806-3.344,2.778
		c-0.507,0.416-1.147,0.718-1.523,1.222c-0.353,0.472-0.735,1.281-0.549,1.693c0.2,0.446,1.066,0.875,1.597,0.823
		c0.926-0.088,1.94-0.374,2.691-0.897c0.841-0.584,1.592-0.734,2.525-0.491c0.632,0.167,1.277,0.336,1.924,0.403
		c1.392,0.142,2.581,0.53,2.903,2.186c1.537-0.143,2.947-0.274,4.637-0.432c-0.759,1.129-1.297,1.932-1.926,2.873
		c2.615,0.955,4.288-2.169,6.677-0.785c0.44,1.514-0.466,2.445-1.531,3.251c-1.438,1.087-2.881,2.171-4.399,3.133
		c-0.459,0.294-1.245,0.4-1.763,0.228c-3.045-1.002-5.742-2.372-5.007-6.756c-1.724,0.731-2.973,1.298-4.25,1.796
		c-1.752,0.686-3.509,1.373-5.298,1.951c-0.68,0.217-1.473,0.245-2.185,0.156c-1.586-0.195-1.984-0.628-1.987-2.239
		c-0.002-1.391,0.207-2.78,0.27-4.174c0.047-1.03,0.01-2.063,0.01-3.085c-2.289-0.024-2.383,0.057-2.562,1.636
		c-0.101,0.892-0.132,1.818-0.404,2.663c-0.549,1.717-1.609,1.95-2.908,0.63c-0.552-0.561-1.08-1.295-1.273-2.042
		c-1.226-4.722-0.107-8.982,3-12.646c1.92-2.266,6.496-2.203,9.023-0.051c0.933,0.795,1.787,1.7,2.617,2.608
		C272.631,124.042,273.508,125.135,274.73,126.579z"/>
	<path fill-rule="evenodd" clip-rule="evenodd" fill="#FFFFFF" d="M215.605,617.541c2.054-0.928,4.036-1.74,5.986-0.174
		c0.21,1.328-0.521,2.109-1.388,2.53c-4.651,2.253-7.724,6.327-11.375,9.729c-0.883,0.821-1.623,1.088-2.831,0.787
		c-2.921-0.727-5.01-2.533-6.483-4.974c-2.75-4.557-3.222-9.61-2.771-14.796c0.039-0.442,0.295-1.12,0.613-1.235
		c2.669-0.953,5.178-2.542,8.245-1.933c2.698,0.537,4.65,1.917,5.849,4.421C212.438,613.965,213.381,616.091,215.605,617.541z"/>
	<path fill-rule="evenodd" clip-rule="evenodd" fill="#FFFFFF" d="M164.258,443.886c-2.303-0.078-4.562-1.033-5.744-3.673
		c-0.804-1.797-1.489-3.649-2.147-5.505c-0.602-1.701-1.096-3.439-1.633-5.163c-0.854-2.754-0.152-5.008,2.118-6.761
		c0.716-0.554,1.45-1.084,2.195-1.597c1.667-1.149,2.525-1.268,3.903,0.173c1.455,1.52,2.821,3.235,3.781,5.094
		c1.908,3.698,2.494,7.8,2.961,11.9c0.027,0.243,0.019,0.493,0.006,0.739C169.509,442.76,168.392,443.827,164.258,443.886z"/>
	<path fill-rule="evenodd" clip-rule="evenodd" fill="#FFFFFF" d="M348.568,818.056c1.917-1.053,3.828-2.118,5.751-3.155
		c0.94-0.505,2.005-0.827,2.833-1.464c2.038-1.568,4.192-1.566,6.489-0.841c1.64,0.521,3.282,1.039,4.936,1.504
		c1.899,0.535,2.839,2.074,3.782,3.318c-1.916,2.128-3.762,4.16-5.591,6.208c-2.172,2.43-4.757,2.765-7.255,0.577
		c-2.538-2.221-5.536-3.434-8.582-4.628c-0.75-0.296-1.5-0.592-2.249-0.884C348.646,818.479,348.606,818.268,348.568,818.056z"/>
	<path fill-rule="evenodd" clip-rule="evenodd" fill="#FFFFFF" d="M48.599,260.954c-3.522-1.322-2.665-3.295-1.192-5.446
		c1.1-1.606,2.554-2.452,4.674-1.892c0,0.529,0,0.98,0,1.633c1.823-0.517,2.269-2.47,3.805-3.163
		c0.501,1.139,0.437,2.563,2.019,3.012c0.952-0.925,1.949-1.879,2.929-2.847c0.519-0.513,0.957-1.239,1.848-0.804
		c0.895,0.438,1.042,1.178,0.727,2.079c-0.073,0.207-0.011,0.461-0.011,0.895c1.867,0.115,3.694,0.229,5.74,0.356
		c-0.186,0.83-0.317,1.416-0.494,2.214c-1.815-0.473-3.442-0.896-5.359-1.392c0.521,2.309,3.017,2.756,3.588,4.83
		c-2.315,2.786-5.948,0.629-8.753,2.123c-0.104,0.833-0.213,1.7-0.349,2.779c-1.94-0.577-3.091-1.923-4.282-3.213
		C51.448,259.904,51.448,259.902,48.599,260.954z"/>
	<path fill-rule="evenodd" clip-rule="evenodd" fill="#FFFFFF" d="M52.215,278.697c3.751,1.806,7.144,3.506,9.768,6.353
		c-0.738,3.229-2.747,5.064-5.783,5.993c0.953,1.184,1.925,2.163,2.621,3.311c1.169,1.922,0.922,2.404-1.228,3.179
		c-0.302,0.107-0.608,0.197-1.091,0.352c0.958,1.632,2.862,1.605,4.191,2.896c-0.35,0.353-0.635,0.886-1.054,1.026
		c-3.403,1.147-6.729-0.604-7.743-4.076c-0.834-2.861-1.183-5.748-0.687-8.754c0.417-2.504,0.496-5.063,0.728-7.596
		C52.011,280.59,52.1,279.802,52.215,278.697z"/>
	<path fill-rule="evenodd" clip-rule="evenodd" fill="#FFFFFF" d="M130.794,399.698c-0.03,0.611,0.069,1.066-0.089,1.402
		c-1.692,3.62-3.452,7.21-5.137,10.834c-0.653,1.403-1.745,1.467-3.063,1.373c-1.355-0.097-2.028-0.848-2.498-1.999
		c-0.971-2.369-1.118-4.762-0.334-7.202c0.622-1.938,1.921-3.349,3.835-3.836C125.785,399.69,128.139,399.263,130.794,399.698z"/>
	<path fill-rule="evenodd" clip-rule="evenodd" fill="#FFFFFF" d="M124.08,398.902c0.252-2.036,0.775-3.682,2.079-4.875
		c1.983-1.816,4.047-3.552,6.174-5.198c1.723-1.337,3.589-2.492,5.845-4.036c-0.123,1.265-0.105,2.127-0.303,2.935
		c-0.952,3.887-3.075,7.208-5.235,10.497c-0.236,0.361-0.754,0.74-1.156,0.755C129.062,399.076,126.63,399.192,124.08,398.902z"/>
	<path fill-rule="evenodd" clip-rule="evenodd" fill="#FFFFFF" d="M253.941,143.049c0.811-3.899,3.921-4.525,6.133-2.999
		c2.297,1.583,4.247,3.389,5.037,6.162c0.425,1.491,0.667,2.956-1.19,3.757c-0.184,0.078-0.287,0.354-0.649,0.829
		c1.469,0,2.718,0,4.119,0c-1.833,2.962-4.606,3.374-6.536,1.013c-1.341-1.639-2.422-3.514-3.456-5.375
		C256.579,144.962,255.708,143.628,253.941,143.049z"/>
	<path fill-rule="evenodd" clip-rule="evenodd" fill="#FFFFFF" d="M110.979,311.265c-0.056,0.404-0.076,0.819-0.174,1.215
		c-0.67,2.691-1.852,3.31-4.517,2.468c-1.986-0.627-3.349-1.96-4.536-3.605c-0.718-0.994-0.609-1.811,0.137-2.647
		c1.32-1.476,3.087-2.144,4.941-2.541c1.128-0.242,2.171,0.223,2.738,1.244c0.661,1.187,1.146,2.472,1.706,3.714
		C111.177,311.166,111.078,311.213,110.979,311.265z"/>
	<path fill-rule="evenodd" clip-rule="evenodd" fill="#FFFFFF" d="M165.518,403.787c5.512,1.423,7.819,8.48,7.189,14.841
		c-1.501-1.813-2.916-3.367-4.149-5.053c-1.161-1.588-2.213-3.268-3.153-4.997C164.588,407.079,163.757,405.452,165.518,403.787z"/>
	<path fill-rule="evenodd" clip-rule="evenodd" fill="#FFFFFF" d="M58.443,275.44c-2.476-0.28-4.721-0.898-5.764-3.49
		c-0.745-1.847,0.205-3.462,2.16-3.347c2.693,0.159,4.738,1.728,6.37,3.739c0.748,0.924-0.265,2.723-1.562,3.027
		C59.255,275.461,58.835,275.422,58.443,275.44z"/>
	<path fill-rule="evenodd" clip-rule="evenodd" fill="#FFFFFF" d="M86.547,351.263c-1.468,0.846-2.873,1.848-4.424,2.494
		c-1.629,0.68-3.141,1.39-4.12,2.931c-0.129,0.201-0.333,0.36-0.512,0.528c-0.762,0.708-1.426,1.744-2.7,0.937
		c-0.897-0.569-1.222-2.16-0.696-3.361c0.612-1.382,1.783-2.16,3.154-2.556c2.516-0.726,5.056-1.37,7.605-1.964
		c0.479-0.112,1.047,0.176,1.573,0.279C86.467,350.789,86.509,351.026,86.547,351.263z"/>
	<path fill-rule="evenodd" clip-rule="evenodd" fill="#FFFFFF" d="M88.839,347.364c2.315-4.818,6.781-6.733,11.224-9.415
		c0,1.036,0.173,1.692-0.027,2.207C98.571,343.936,93.403,347.306,88.839,347.364z"/>
	<path fill-rule="evenodd" clip-rule="evenodd" fill="#FFFFFF" d="M273.649,115.708c1.03-0.171,1.672-0.307,2.317-0.369
		c0.303-0.029,0.619,0.088,1.144,0.174c-0.117,0.808-0.141,1.533-0.339,2.21c-0.514,1.778-2.002,2.911-3.587,2.823
		c-1.457-0.08-3.52-2.03-3.744-3.526c-0.176-1.189,0.632-1.916,1.433-2.382c0.486-0.283,1.368-0.032,2.017,0.166
		C273.214,114.899,273.411,115.41,273.649,115.708z"/>
	<path fill-rule="evenodd" clip-rule="evenodd" fill="#FFFFFF" d="M272.328,102.389c1.658-0.898,3.121-1.692,4.58-2.482
		c-0.015-0.028,0.141,0.142,0.105,0.249c-0.835,2.608-0.654,3.032,1.812,4.431c0.992,0.561,2.037,1.08,2.891,1.812
		c1.204,1.031,1.146,1.776-0.157,3.601c-0.359-0.759-0.649-1.362-0.931-1.969c-0.858-1.862-1.568-2.209-3.469-1.69
		c-2.428,0.666-2.434,0.668-3.556-1.455C273.154,104.037,272.731,103.177,272.328,102.389z"/>
	<path fill-rule="evenodd" clip-rule="evenodd" fill="#FFFFFF" d="M298.546,105.184c-0.617,0.651-1.149,1.21-1.779,1.872
		c1.799,1.247,3.059,0.038,4.309-0.672c1.32-0.753,2.532-1.707,4.152-2.818c0.097,0.989,0.159,1.638,0.234,2.432
		c-2.74,0.168-4.424,1.544-5.199,3.592c-1.849,0.218-3.572,0.08-4.979,0.682c-1.483,0.633-2.663,1.977-4.168,3.163
		c0.381-1.659,1.294-2.703,2.467-3.605c1.042-0.799,1.917-1.605,1.948-3.181C295.558,105.153,296.215,104.937,298.546,105.184z"/>
	<path fill-rule="evenodd" clip-rule="evenodd" fill="#FFFFFF" d="M50.616,306.666c0.462,2.113,0.857,3.674,1.132,5.255
		c0.241,1.384-0.417,2.319-1.667,2.944c-1.472,0.738-2.889,0.611-4.182-0.266c-0.338-0.229-0.476-1.011-0.409-1.496
		c0.075-0.531,0.415-1.08,0.775-1.505C47.523,310.106,48.841,308.665,50.616,306.666z"/>
	<path fill-rule="evenodd" clip-rule="evenodd" fill="#FFFFFF" d="M280.647,147.67c0.065,2.996-1.335,5.539-2.192,8.26
		c-2.277-1.131-3.009-3.33-2.319-6.898c-0.62-0.21-1.262-0.429-2.391-0.813C276.329,147.495,278.354,146.647,280.647,147.67z"/>
	<path fill-rule="evenodd" clip-rule="evenodd" fill="#FFFFFF" d="M124.38,267.833c-1.13,4.184-1.291,7.912-0.99,11.679
		c0.1,1.247-0.488,2.015-1.466,2.112c-1.188,0.12-1.53-0.763-1.782-1.643c-0.688-2.417-0.262-4.695,1.001-6.829
		C122.095,271.55,123.079,269.967,124.38,267.833z"/>
	<path fill-rule="evenodd" clip-rule="evenodd" fill="#FFFFFF" d="M293.098,118.267c2.522,0.335,2.522,0.335,3.087,3.021
		c0.342,0.02,0.729,0.043,1.115,0.062c0.311,0.019,0.622,0.035,1.044,0.059c0.05,0.96,0.096,1.843,0.156,2.907
		c-0.982,0.188-1.829,0.35-2.706,0.519c-0.321-0.677-0.59-1.247-0.928-1.967c-0.891,0.394-1.684,0.743-3.005,1.323
		c0.545-0.987,0.817-1.604,1.197-2.145C294.299,120.283,294.314,120.296,293.098,118.267z"/>
	<path fill-rule="evenodd" clip-rule="evenodd" fill="#FFFFFF" d="M286.228,109.702c2.217,1.674,2.141,1.684,1.738,3.587
		c-0.368,1.742-0.525,3.528-0.777,5.309c-2.327-0.862-2.926-1.933-2.33-3.968C285.316,113.068,285.733,111.493,286.228,109.702z"/>
	<path fill-rule="evenodd" clip-rule="evenodd" fill="#FFFFFF" d="M116.42,315.509c1.58,0.889,2.128,2.06,1.961,3.579
		c-0.106,0.976-0.604,1.627-1.639,1.901c-1.471,0.391-1.7,0.355-3.261-1.343C114.417,318.325,115.386,316.963,116.42,315.509z"/>
	<path fill-rule="evenodd" clip-rule="evenodd" fill="#FFFFFF" d="M111.426,393.501c-1.157-0.38-1.542-0.993-0.998-2.08
		c1.108-2.213,2.925-3.609,5.496-4.968C115.236,389.746,114.023,392.071,111.426,393.501z"/>
	<path fill-rule="evenodd" clip-rule="evenodd" fill="#FFFFFF" d="M284.146,124.48c1.091,1.967,0.636,3.171-0.338,4.322
		c-0.919,1.082-2.116,0.827-3.194,0.553c-0.475-0.122-1.078-0.856-1.094-1.331c-0.014-0.447,0.603-1.213,1.058-1.315
		C281.928,126.398,283.375,126.423,284.146,124.48z"/>
	<path fill-rule="evenodd" clip-rule="evenodd" fill="#FFFFFF" d="M53.214,276.895c3.287-0.337,4.864,0.699,5.984,3.763
		C56.721,280.425,54.78,279.243,53.214,276.895z"/>
	<path fill-rule="evenodd" clip-rule="evenodd" fill="#FFFFFF" d="M123.719,282.283c1.5,0.774,2.75,1.421,4.129,2.132
		c-0.773,1.274-1.234,2.532-2.79,2.168C123.674,286.259,123.184,284.82,123.719,282.283z"/>
	<path fill-rule="evenodd" clip-rule="evenodd" fill="#FFFFFF" d="M145.014,356.236c1.021-3.045,3.726-4.354,6.073-6.033
		C150.143,353.274,147.781,354.953,145.014,356.236z"/>
	<path fill-rule="evenodd" clip-rule="evenodd" fill="#FFFFFF" d="M137.227,419.822c0.583,1.936,0.108,3.595-1.345,5.569
		C135.528,422.994,136.103,421.344,137.227,419.822z"/>
	<path fill-rule="evenodd" clip-rule="evenodd" fill="#FFFFFF" d="M70.183,232.461c0.859-0.698,1.717-1.397,2.559-2.083
		c1.426,1.53,1.386,1.944-0.144,2.402c-0.714,0.212-1.479,0.257-2.219,0.378C70.313,232.926,70.248,232.695,70.183,232.461z"/>
	<path fill-rule="evenodd" clip-rule="evenodd" fill="#FFFFFF" d="M142.414,373.219c-1.266-0.873-1.38-1.855-0.773-2.72
		c0.295-0.416,1.157-0.429,1.87-0.658C143.79,371.403,143.51,372.382,142.414,373.219z"/>
	<path fill-rule="evenodd" clip-rule="evenodd" fill="#FFFFFF" d="M115.611,356.956c-2.813,0.72-3.399,0.469-3.925-1.573
		C113.164,355.288,114.348,355.76,115.611,356.956z"/>
	<path fill-rule="evenodd" clip-rule="evenodd" fill="#FFFFFF" d="M140.813,379.081c0.074-1.476,0.148-2.95,0.251-4.971
		c1.588,2.07,0.891,3.542,0.366,5.012C141.227,379.109,141.021,379.094,140.813,379.081z"/>
	<path fill-rule="evenodd" clip-rule="evenodd" fill="#FFFFFF" d="M179.084,414.09c-0.041,0.84,0.014,1.701-0.18,2.504
		c-0.066,0.275-0.754,0.401-1.157,0.597c-0.2-0.458-0.672-1.026-0.544-1.358c0.274-0.698,0.864-1.274,1.323-1.899
		C178.712,413.986,178.897,414.037,179.084,414.09z"/>
	<path fill-rule="evenodd" clip-rule="evenodd" fill="#FFFFFF" d="M125.835,260.583c-0.426,1.833-0.76,3.261-1.156,4.961
		C123.542,263.42,123.775,262.353,125.835,260.583z"/>
	<path fill-rule="evenodd" clip-rule="evenodd" fill="#FFFFFF" d="M80.52,201.741c1.224,0.715,2.838,1.008,3.569,2.999
		C81.979,204.317,81.059,203.248,80.52,201.741z"/>
	<path fill-rule="evenodd" clip-rule="evenodd" fill="#FFFFFF" d="M98.7,305.402c-1.566,1.162-2.97,1.339-4.786,0.961
		C95.372,305.132,96.768,304.927,98.7,305.402z"/>
	<path fill-rule="evenodd" clip-rule="evenodd" fill="#FFFFFF" d="M275.458,106.603c-0.196-2.131-0.06-2.305,2.361-3.213
		C277.705,104.925,276.807,105.732,275.458,106.603z"/>
	<path fill-rule="evenodd" clip-rule="evenodd" fill="#FFFFFF" d="M65.658,263.956c-0.366,0.748-0.571,1.447-1.004,1.941
		c-0.193,0.22-0.993,0.205-1.256-0.017c-0.252-0.211-0.365-0.955-0.185-1.238C63.697,263.886,64.424,263.426,65.658,263.956z"/>
	<path fill-rule="evenodd" clip-rule="evenodd" fill="#FFFFFF" d="M144.637,364.198c0.602-1.823,1.715-2.164,3.33-2.193
		C147.225,363.374,146.623,364.49,144.637,364.198z"/>
	<path fill-rule="evenodd" clip-rule="evenodd" fill="#FFFFFF" d="M63.985,221.481c0.674-1.162,1.22-1.844,2.146-1.36
		c0.432,0.227,0.637,0.895,0.946,1.364c-0.11,0.151-0.218,0.3-0.328,0.453C65.918,221.801,65.086,221.665,63.985,221.481z"/>
	<path fill-rule="evenodd" clip-rule="evenodd" fill="#FFFFFF" d="M139.053,381.2c-0.284,0.595-0.43,1.445-0.901,1.704
		c-0.37,0.207-1.141-0.318-1.736-0.519c-0.006-0.202-0.014-0.404-0.021-0.607c0.717-0.359,1.437-0.718,2.153-1.079
		C138.718,380.868,138.884,381.033,139.053,381.2z"/>
	<path fill-rule="evenodd" clip-rule="evenodd" fill="#FFFFFF" d="M47.514,316.583c-0.557,1.331-1.366,1.479-2.281,1.08
		c-0.281-0.125-0.59-0.638-0.543-0.916c0.045-0.262,0.548-0.641,0.834-0.628C46.141,316.145,46.749,316.391,47.514,316.583z"/>
	<path fill-rule="evenodd" clip-rule="evenodd" fill="#FFFFFF" d="M101.671,370.939c-0.357-2.415-0.161-2.693,1.961-2.808
		C102.951,369.106,102.413,369.875,101.671,370.939z"/>
	<path fill-rule="evenodd" clip-rule="evenodd" fill="#FFFFFF" d="M62.151,263.672c-0.356,1.185-0.565,1.879-0.876,2.914
		c-0.756-0.714-1.231-1.16-2.054-1.937C60.316,264.283,60.995,264.057,62.151,263.672z"/>
	<path fill-rule="evenodd" clip-rule="evenodd" fill="#FFFFFF" d="M251.216,108.25c0.217-1.058,0.433-2.112,0.649-3.169
		c1.063,1.229,0.876,2.287-0.012,3.255C251.639,108.307,251.43,108.278,251.216,108.25z"/>
	<path fill-rule="evenodd" clip-rule="evenodd" fill="#FFFFFF" d="M64.669,247.614c-0.773,0.605-1.437,1.127-2.306,1.807
		C62.242,246.665,62.442,246.518,64.669,247.614z"/>
	<path fill-rule="evenodd" clip-rule="evenodd" fill="#FFFFFF" d="M53.369,264.045c1.839,0.526,1.46,1.727,1.136,3.067
		C53.088,266.387,53.23,265.27,53.369,264.045z"/>
	<path fill-rule="evenodd" clip-rule="evenodd" fill="#FFFFFF" d="M472.513,729.424c0.825-1.452,1.843-1.798,3.482-0.808
		C474.588,728.943,473.549,729.181,472.513,729.424z"/>
	<path fill-rule="evenodd" clip-rule="evenodd" fill="#FFFFFF" d="M280.883,146.33c-0.71,0-1.107,0.017-1.502-0.009
		c-0.229-0.017-0.455-0.103-0.984-0.23c0.398-0.508,0.614-1.06,1.006-1.236C280.68,144.279,280.598,145.347,280.883,146.33z"/>
	<path fill-rule="evenodd" clip-rule="evenodd" fill="#FFFFFF" d="M59.492,243.029c0.851,0,1.574,0,2.354,0
		C60.998,244.624,60.635,244.639,59.492,243.029z"/>
	<path fill-rule="evenodd" clip-rule="evenodd" fill="#FFFFFF" d="M269.934,146.516c0.144,0.499,0.393,0.998,0.393,1.497
		c0,0.28-0.407,0.561-0.635,0.84c-0.252-0.246-0.738-0.512-0.721-0.738c0.045-0.584,0.313-1.15,0.493-1.723
		C269.621,146.433,269.776,146.475,269.934,146.516z"/>
	<path fill-rule="evenodd" clip-rule="evenodd" fill="#FFFFFF" d="M278.407,117.218c1.7,0.727,0.818,1.582,0.578,2.608
		C277.954,119.063,277.983,118.308,278.407,117.218z"/>
	<path fill-rule="evenodd" clip-rule="evenodd" fill="#FFFFFF" d="M40.761,326.718c-0.031,0.305-0.001,0.634-0.112,0.907
		c-0.145,0.356-0.404,0.667-0.683,1.108c-0.95-1.125-0.443-1.706,0.263-2.239C40.408,326.568,40.585,326.644,40.761,326.718z"/>
	<path fill-rule="evenodd" clip-rule="evenodd" fill="#FFFFFF" d="M57.185,305.334c0.154-0.582,0.298-1.165,0.489-1.73
		c0.012-0.03,0.549,0,0.651,0.139c0.563,0.781,0.043,1.271-0.411,1.763C57.672,305.448,57.429,305.39,57.185,305.334z"/>
	<path fill-rule="evenodd" clip-rule="evenodd" fill="#FFFFFF" d="M334.542,422.884c0.578,0.268,1.161,0.535,2.241,1.033
		c-1.364,0.201-2.137,0.448-2.533-0.445C334.345,423.275,334.445,423.079,334.542,422.884z"/>
	<path fill-rule="evenodd" clip-rule="evenodd" fill="#FFFFFF" d="M130.213,328.58c0.453-0.05,0.908-0.098,1.363-0.147
		c0.019,0.172,0.037,0.344,0.057,0.516c-0.456,0.036-0.911,0.071-1.366,0.107C130.248,328.897,130.229,328.737,130.213,328.58z"/>
	<path fill-rule="evenodd" clip-rule="evenodd" fill="#FFFFFF" d="M112.256,325.427c-0.978,0.097-1.435,0.145-1.892,0.189
		c-0.044-0.123-0.089-0.244-0.135-0.366c0.277-0.19,0.539-0.487,0.839-0.534C111.284,324.682,111.55,324.986,112.256,325.427z"/>
	<path fill-rule="evenodd" clip-rule="evenodd" fill="#FFFFFF" d="M275.047,121.422c0.267-0.059,0.533-0.153,0.802-0.167
		c0.236-0.013,0.48,0.06,1.304,0.18c-1.041,0.214-1.528,0.314-2.019,0.415C275.108,121.706,275.08,121.563,275.047,121.422z"/>
	<path fill-rule="evenodd" clip-rule="evenodd" fill="#FFFFFF" d="M143.988,378.032c0.029,0.402,0.057,0.804,0.084,1.207
		c-0.141,0.004-0.282,0.007-0.424,0.01c0-0.402,0-0.805,0-1.206C143.762,378.038,143.876,378.034,143.988,378.032z"/>
	<path fill-rule="evenodd" clip-rule="evenodd" fill="#FFFFFF" d="M153.044,220.989c0.282,0.175,0.477,0.297,0.671,0.415
		c-0.105,0.168-0.2,0.467-0.317,0.475c-0.203,0.017-0.42-0.145-0.633-0.234C152.848,221.45,152.932,221.257,153.044,220.989z"/>
	<path fill-rule="evenodd" clip-rule="evenodd" fill="#FFFFFF" d="M46.072,320.156c0.331,0,0.663-0.01,0.993,0.017
		c0.023,0.001,0.052,0.378,0.035,0.382c-0.342,0.071-0.692,0.116-1.039,0.165C46.064,320.531,46.069,320.343,46.072,320.156z"/>
	<path fill-rule="evenodd" clip-rule="evenodd" fill="#FFFFFF" d="M268.431,162.043c0.124-0.302,0.271-0.657,0.495-1.204
		c0.607,0.673,0.45,1.079-0.08,1.45c-0.057,0.042-0.169,0.06-0.229,0.035C268.558,162.297,268.53,162.198,268.431,162.043z"/>
	<path fill-rule="evenodd" clip-rule="evenodd" fill="#FFFFFF" d="M63.776,267.798c-0.081,0.372-0.161,0.743-0.242,1.116
		c-0.088-0.014-0.175-0.027-0.262-0.042c0-0.373,0-0.748,0-1.122C63.44,267.765,63.607,267.78,63.776,267.798z"/>
</g>
<g id="trees">
	<path fill-rule="evenodd" clip-rule="evenodd" fill="#595651" d="M236.211,808.435c-2.126-2.887-4.286-5.736-6.319-8.498
		c0.977-0.14,1.947-0.013,2.962-0.158c-1.566-2.118-2.945-3.984-4.41-5.964c0.83-0.134,1.413-0.228,2.302-0.371
		c-2.226-2.986-4.3-5.768-6.517-8.742c-2.271,3.05-4.336,5.821-6.527,8.763c0.982,0.162,1.544,0.254,2.263,0.373
		c-1.482,2.046-2.838,3.918-4.344,5.996c1.055,0.122,1.901,0.066,2.888,0.179c-2.073,2.799-4.165,5.573-6.276,8.423
		C220.402,808.435,228.143,808.435,236.211,808.435z M228.998,803.478c0.76,0,1.378,0.617,1.378,1.379
		c0,0.762-0.618,1.379-1.378,1.379c-0.762,0-1.38-0.617-1.38-1.379C227.617,804.095,228.235,803.478,228.998,803.478z
		 M226.236,794.958c0.76,0,1.378,0.617,1.378,1.38c0,0.762-0.618,1.379-1.378,1.379c-0.763,0-1.381-0.617-1.381-1.379
		C224.855,795.575,225.474,794.958,226.236,794.958z M223.048,789.864c0.76,0,1.378,0.617,1.378,1.379s-0.618,1.379-1.378,1.379
		c-0.763,0-1.381-0.617-1.381-1.379S222.285,789.864,223.048,789.864z M223,799.242c0.76,0,1.378,0.617,1.378,1.379
		S223.76,802,223,802c-0.763,0-1.381-0.617-1.381-1.379S222.237,799.242,223,799.242z M218.621,804.382
		c0.76,0,1.378,0.617,1.378,1.379c0,0.762-0.618,1.379-1.378,1.379c-0.763,0-1.38-0.617-1.38-1.379
		C217.24,804.999,217.858,804.382,218.621,804.382z"/>
	<path fill-rule="evenodd" clip-rule="evenodd" fill="#595651" d="M281.396,679.253c-2.468-3.351-4.975-6.658-7.335-9.865
		c1.134-0.162,2.26-0.014,3.439-0.183c-1.818-2.459-3.419-4.625-5.12-6.923c0.963-0.156,1.64-0.264,2.672-0.431
		c-2.583-3.466-4.991-6.695-7.564-10.147c-2.637,3.541-5.034,6.757-7.578,10.172c1.14,0.188,1.793,0.295,2.627,0.433
		c-1.72,2.375-3.295,4.548-5.042,6.959c1.225,0.141,2.207,0.076,3.353,0.208c-2.407,3.249-4.834,6.469-7.285,9.777
		C263.044,679.253,272.03,679.253,281.396,679.253z M273.022,673.499c0.883,0,1.6,0.716,1.6,1.602c0,0.884-0.717,1.601-1.6,1.601
		c-0.885,0-1.603-0.716-1.603-1.601C271.42,674.215,272.137,673.499,273.022,673.499z M269.817,663.609
		c0.882,0,1.599,0.716,1.599,1.602c0,0.884-0.717,1.601-1.599,1.601c-0.886,0-1.603-0.716-1.603-1.601
		C268.214,664.325,268.932,663.609,269.817,663.609z M266.116,657.696c0.882,0,1.6,0.716,1.6,1.602c0,0.885-0.718,1.601-1.6,1.601
		c-0.885,0-1.603-0.716-1.603-1.601C264.513,658.413,265.23,657.696,266.116,657.696z M266.06,668.582c0.883,0,1.6,0.716,1.6,1.601
		c0,0.885-0.717,1.601-1.6,1.601c-0.885,0-1.603-0.716-1.603-1.601C264.458,669.298,265.175,668.582,266.06,668.582z
		 M260.977,674.549c0.883,0,1.6,0.716,1.6,1.601c0,0.885-0.717,1.601-1.6,1.601c-0.885,0-1.603-0.716-1.603-1.601
		C259.374,675.265,260.092,674.549,260.977,674.549z"/>
	<path fill-rule="evenodd" clip-rule="evenodd" fill="#595651" d="M480.236,693.73c-2.434-3.305-4.907-6.568-7.236-9.73
		c1.119-0.16,2.229-0.014,3.392-0.181c-1.793-2.425-3.372-4.562-5.049-6.829c0.95-0.153,1.617-0.261,2.635-0.425
		c-2.548-3.418-4.923-6.604-7.462-10.009c-2.601,3.492-4.965,6.666-7.474,10.034c1.124,0.185,1.768,0.291,2.591,0.427
		c-1.697,2.342-3.25,4.486-4.974,6.864c1.208,0.14,2.177,0.076,3.307,0.205c-2.374,3.205-4.769,6.381-7.186,9.645
		C462.134,693.73,470.998,693.73,480.236,693.73z M471.977,688.055c0.87,0,1.578,0.707,1.578,1.58c0,0.873-0.708,1.579-1.578,1.579
		c-0.874,0-1.581-0.707-1.581-1.579C470.396,688.761,471.104,688.055,471.977,688.055z M468.815,678.299
		c0.87,0,1.578,0.707,1.578,1.58c0,0.873-0.708,1.579-1.578,1.579c-0.874,0-1.581-0.707-1.581-1.579
		C467.234,679.006,467.941,678.299,468.815,678.299z M465.164,672.468c0.87,0,1.578,0.706,1.578,1.579
		c0,0.873-0.708,1.579-1.578,1.579c-0.874,0-1.581-0.707-1.581-1.579C463.583,673.174,464.291,672.468,465.164,672.468z
		 M465.109,683.205c0.871,0,1.578,0.707,1.578,1.58c0,0.873-0.708,1.579-1.578,1.579c-0.873,0-1.581-0.707-1.581-1.579
		C463.528,683.911,464.236,683.205,465.109,683.205z M460.095,689.09c0.871,0,1.578,0.707,1.578,1.58
		c0,0.872-0.708,1.579-1.578,1.579c-0.873,0-1.581-0.707-1.581-1.579C458.514,689.797,459.222,689.09,460.095,689.09z"/>
	<path fill-rule="evenodd" clip-rule="evenodd" fill="#595651" d="M243.468,347.253c-3.722-5.054-7.503-10.042-11.063-14.878
		c1.711-0.244,3.408-0.021,5.187-0.276c-2.742-3.708-5.156-6.975-7.721-10.441c1.452-0.234,2.473-0.398,4.029-0.65
		c-3.896-5.227-7.527-10.098-11.409-15.304c-3.977,5.34-7.592,10.191-11.428,15.342c1.719,0.283,2.704,0.445,3.962,0.652
		c-2.595,3.581-4.97,6.859-7.605,10.496c1.848,0.213,3.329,0.115,5.057,0.313c-3.63,4.9-7.292,9.757-10.987,14.746
		C215.791,347.253,229.343,347.253,243.468,347.253z M230.84,338.575c1.331,0,2.413,1.08,2.413,2.415
		c0,1.334-1.082,2.414-2.413,2.414c-1.335,0-2.417-1.08-2.417-2.414C228.423,339.655,229.505,338.575,230.84,338.575z
		 M226.006,323.659c1.33,0,2.412,1.08,2.412,2.415c0,1.334-1.082,2.414-2.412,2.414c-1.336,0-2.417-1.08-2.417-2.414
		C223.588,324.739,224.67,323.659,226.006,323.659z M220.423,314.742c1.33,0,2.412,1.08,2.412,2.415
		c0,1.334-1.082,2.414-2.412,2.414c-1.335,0-2.417-1.08-2.417-2.414C218.006,315.822,219.088,314.742,220.423,314.742z
		 M220.339,331.159c1.331,0,2.413,1.08,2.413,2.415c0,1.334-1.082,2.414-2.413,2.414c-1.335,0-2.417-1.08-2.417-2.414
		C217.922,332.239,219.004,331.159,220.339,331.159z M212.673,340.158c1.331,0,2.413,1.08,2.413,2.415
		c0,1.334-1.082,2.414-2.413,2.414c-1.335,0-2.417-1.08-2.417-2.414C210.256,341.238,211.338,340.158,212.673,340.158z"/>
	<path fill-rule="evenodd" clip-rule="evenodd" fill="#595651" d="M383.655,734.828c-2.48-3.368-5-6.693-7.374-9.916
		c1.14-0.163,2.271-0.014,3.457-0.184c-1.828-2.471-3.437-4.648-5.146-6.959c0.968-0.156,1.648-0.266,2.686-0.434
		c-2.597-3.483-5.017-6.73-7.604-10.2c-2.651,3.559-5.06,6.792-7.617,10.225c1.146,0.188,1.802,0.297,2.641,0.435
		c-1.729,2.387-3.313,4.572-5.069,6.996c1.231,0.142,2.219,0.077,3.371,0.209c-2.419,3.266-4.86,6.503-7.323,9.828
		C365.209,734.828,374.241,734.828,383.655,734.828z M375.239,729.044c0.887,0,1.608,0.72,1.608,1.61
		c0,0.889-0.721,1.609-1.608,1.609c-0.89,0-1.611-0.72-1.611-1.609C373.628,729.765,374.349,729.044,375.239,729.044z
		 M372.017,719.103c0.886,0,1.607,0.72,1.607,1.61c0,0.889-0.721,1.609-1.607,1.609c-0.891,0-1.611-0.72-1.611-1.609
		C370.406,719.823,371.126,719.103,372.017,719.103z M368.296,713.16c0.886,0,1.607,0.72,1.607,1.609
		c0,0.889-0.721,1.609-1.607,1.609c-0.89,0-1.611-0.72-1.611-1.609C366.685,713.88,367.406,713.16,368.296,713.16z M368.24,724.102
		c0.887,0,1.608,0.72,1.608,1.609c0,0.889-0.721,1.609-1.608,1.609c-0.89,0-1.611-0.72-1.611-1.609
		C366.629,724.822,367.351,724.102,368.24,724.102z M363.13,730.1c0.887,0,1.608,0.72,1.608,1.61c0,0.889-0.721,1.609-1.608,1.609
		c-0.89,0-1.611-0.72-1.611-1.609C361.52,730.819,362.241,730.1,363.13,730.1z"/>
	<path fill-rule="evenodd" clip-rule="evenodd" fill="#595651" d="M375.415,569.508c-2.48-3.368-5-6.693-7.374-9.916
		c1.14-0.163,2.271-0.014,3.457-0.184c-1.828-2.471-3.437-4.648-5.146-6.959c0.968-0.156,1.648-0.266,2.686-0.434
		c-2.597-3.483-5.017-6.73-7.604-10.2c-2.651,3.559-5.06,6.792-7.617,10.225c1.146,0.188,1.802,0.297,2.641,0.435
		c-1.729,2.387-3.313,4.572-5.069,6.996c1.231,0.142,2.219,0.077,3.371,0.209c-2.419,3.266-4.86,6.503-7.323,9.828
		C356.969,569.508,366.001,569.508,375.415,569.508z M366.999,563.724c0.887,0,1.608,0.72,1.608,1.61
		c0,0.889-0.721,1.609-1.608,1.609c-0.89,0-1.611-0.72-1.611-1.609C365.388,564.444,366.109,563.724,366.999,563.724z
		 M363.777,553.783c0.886,0,1.607,0.72,1.607,1.61c0,0.889-0.721,1.609-1.607,1.609c-0.891,0-1.611-0.72-1.611-1.609
		C362.166,554.503,362.886,553.783,363.777,553.783z M360.056,547.84c0.886,0,1.607,0.72,1.607,1.609
		c0,0.889-0.721,1.609-1.607,1.609c-0.89,0-1.611-0.72-1.611-1.609C358.445,548.56,359.166,547.84,360.056,547.84z M360,558.782
		c0.887,0,1.608,0.72,1.608,1.609c0,0.889-0.721,1.609-1.608,1.609c-0.89,0-1.611-0.72-1.611-1.609
		C358.389,559.501,359.11,558.782,360,558.782z M354.89,564.779c0.887,0,1.608,0.72,1.608,1.61c0,0.889-0.721,1.609-1.608,1.609
		c-0.89,0-1.611-0.72-1.611-1.609C353.279,565.499,354,564.779,354.89,564.779z"/>
	<path fill-rule="evenodd" clip-rule="evenodd" fill="#595651" d="M348.628,804.678c-3.722-5.054-7.503-10.042-11.063-14.878
		c1.711-0.244,3.408-0.021,5.187-0.276c-2.742-3.708-5.156-6.975-7.721-10.441c1.452-0.234,2.473-0.398,4.029-0.65
		c-3.896-5.227-7.527-10.098-11.409-15.304c-3.977,5.34-7.592,10.191-11.428,15.342c1.719,0.283,2.704,0.445,3.962,0.652
		c-2.595,3.581-4.97,6.859-7.605,10.496c1.848,0.213,3.329,0.115,5.057,0.313c-3.63,4.9-7.292,9.757-10.987,14.746
		C320.951,804.678,334.503,804.678,348.628,804.678z M336,796c1.331,0,2.413,1.08,2.413,2.415c0,1.334-1.082,2.414-2.413,2.414
		c-1.335,0-2.417-1.08-2.417-2.414C333.583,797.08,334.665,796,336,796z M331.166,781.084c1.33,0,2.412,1.08,2.412,2.415
		c0,1.334-1.082,2.414-2.412,2.414c-1.336,0-2.417-1.08-2.417-2.414C328.749,782.164,329.83,781.084,331.166,781.084z
		 M325.583,772.167c1.33,0,2.412,1.08,2.412,2.415c0,1.334-1.082,2.414-2.412,2.414c-1.335,0-2.417-1.08-2.417-2.414
		C323.166,773.247,324.248,772.167,325.583,772.167z M325.5,788.584c1.331,0,2.413,1.08,2.413,2.415
		c0,1.334-1.082,2.414-2.413,2.414c-1.335,0-2.417-1.08-2.417-2.414C323.083,789.664,324.165,788.584,325.5,788.584z
		 M317.833,797.583c1.331,0,2.413,1.08,2.413,2.415c0,1.334-1.082,2.414-2.413,2.414c-1.335,0-2.417-1.08-2.417-2.414
		C315.416,798.663,316.498,797.583,317.833,797.583z"/>
	<path fill-rule="evenodd" clip-rule="evenodd" fill="#595651" d="M334.468,509.253c-3.722-5.054-7.503-10.042-11.063-14.878
		c1.711-0.244,3.408-0.021,5.187-0.276c-2.742-3.708-5.156-6.975-7.721-10.441c1.452-0.234,2.473-0.398,4.029-0.65
		c-3.896-5.227-7.527-10.098-11.409-15.304c-3.977,5.34-7.592,10.191-11.428,15.342c1.719,0.283,2.704,0.445,3.962,0.652
		c-2.595,3.581-4.97,6.859-7.605,10.496c1.848,0.213,3.329,0.115,5.057,0.313c-3.63,4.9-7.292,9.757-10.987,14.746
		C306.791,509.253,320.343,509.253,334.468,509.253z M321.84,500.575c1.331,0,2.413,1.08,2.413,2.415
		c0,1.334-1.082,2.414-2.413,2.414c-1.335,0-2.417-1.08-2.417-2.414C319.423,501.655,320.505,500.575,321.84,500.575z
		 M317.006,485.659c1.33,0,2.412,1.08,2.412,2.415c0,1.334-1.082,2.414-2.412,2.414c-1.336,0-2.417-1.08-2.417-2.414
		C314.588,486.739,315.67,485.659,317.006,485.659z M311.423,476.742c1.33,0,2.412,1.08,2.412,2.415
		c0,1.334-1.082,2.414-2.412,2.414c-1.335,0-2.417-1.08-2.417-2.414C309.006,477.822,310.088,476.742,311.423,476.742z
		 M311.339,493.159c1.331,0,2.413,1.08,2.413,2.415c0,1.334-1.082,2.414-2.413,2.414c-1.335,0-2.417-1.08-2.417-2.414
		C308.922,494.239,310.004,493.159,311.339,493.159z M303.673,502.158c1.331,0,2.413,1.08,2.413,2.415
		c0,1.334-1.082,2.414-2.413,2.414c-1.335,0-2.417-1.08-2.417-2.414C301.256,503.238,302.338,502.158,303.673,502.158z"/>
</g>
<g id="old_rollovers" display="none">
	
		<circle display="inline" opacity="0.4" fill-rule="evenodd" clip-rule="evenodd" fill="#FF5A00" cx="431.557" cy="764.868" r="20.4"/>
	
		<circle display="inline" opacity="0.4" fill-rule="evenodd" clip-rule="evenodd" fill="#FF5A00" cx="415.96" cy="808.475" r="20.4"/>
	
		<circle display="inline" opacity="0.4" fill-rule="evenodd" clip-rule="evenodd" fill="#FF5A00" cx="376.913" cy="604.219" r="20.4"/>
	
		<circle display="inline" opacity="0.4" fill-rule="evenodd" clip-rule="evenodd" fill="#FF5A00" cx="403.471" cy="764.209" r="20.4"/>
	
		<circle display="inline" opacity="0.4" fill-rule="evenodd" clip-rule="evenodd" fill="#FF5A00" cx="269.613" cy="749.277" r="20.4"/>
	
		<circle display="inline" opacity="0.4" fill-rule="evenodd" clip-rule="evenodd" fill="#FF5A00" cx="267.391" cy="399.086" r="20.4"/>
	
		<circle display="inline" opacity="0.4" fill-rule="evenodd" clip-rule="evenodd" fill="#FF5A00" cx="418.073" cy="742.098" r="20.4"/>
	
		<circle display="inline" opacity="0.4" fill-rule="evenodd" clip-rule="evenodd" fill="#FF5A00" cx="325.803" cy="662.519" r="20.4"/>
	
		<circle display="inline" opacity="0.4" fill-rule="evenodd" clip-rule="evenodd" fill="#FF5A00" cx="315.505" cy="608.758" r="20.4"/>
	
		<circle display="inline" opacity="0.4" fill-rule="evenodd" clip-rule="evenodd" fill="#FF5A00" cx="404.32" cy="602.802" r="20.4"/>
</g>
<g id="Orange_dots">
	<circle fill-rule="evenodd" clip-rule="evenodd" fill="#FF5A00" cx="431.557" cy="764.868" r="12"/>
	<circle fill-rule="evenodd" clip-rule="evenodd" fill="#FF5A00" cx="415.96" cy="808.475" r="12"/>
	<circle fill-rule="evenodd" clip-rule="evenodd" fill="#FF5A00" cx="376.913" cy="604.219" r="12"/>
	<circle fill-rule="evenodd" clip-rule="evenodd" fill="#FF5A00" cx="403.471" cy="764.209" r="12"/>
	<circle fill-rule="evenodd" clip-rule="evenodd" fill="#FF5A00" cx="269.613" cy="749.277" r="12"/>
	<circle fill-rule="evenodd" clip-rule="evenodd" fill="#FF5A00" cx="267.391" cy="399.086" r="12"/>
	<circle fill-rule="evenodd" clip-rule="evenodd" fill="#FF5A00" cx="418.073" cy="742.098" r="12"/>
	<circle fill-rule="evenodd" clip-rule="evenodd" fill="#FF5A00" cx="325.803" cy="662.519" r="12"/>
	<circle fill-rule="evenodd" clip-rule="evenodd" fill="#FF5A00" cx="315.505" cy="608.758" r="12"/>
	<circle fill-rule="evenodd" clip-rule="evenodd" fill="#FF5A00" cx="404.32" cy="602.802" r="12"/>
	<circle fill-rule="evenodd" clip-rule="evenodd" fill="#FF5A00" cx="431.557" cy="764.868" r="12"/>
	<circle fill-rule="evenodd" clip-rule="evenodd" fill="#FF5A00" cx="415.96" cy="808.475" r="12"/>
	<circle fill-rule="evenodd" clip-rule="evenodd" fill="#FF5A00" cx="376.913" cy="604.219" r="12"/>
	<circle fill-rule="evenodd" clip-rule="evenodd" fill="#FF5A00" cx="403.471" cy="764.209" r="12"/>
	<circle fill-rule="evenodd" clip-rule="evenodd" fill="#FF5A00" cx="269.613" cy="749.277" r="12"/>
	<circle fill-rule="evenodd" clip-rule="evenodd" fill="#FF5A00" cx="418.073" cy="742.098" r="12"/>
	<circle fill-rule="evenodd" clip-rule="evenodd" fill="#FF5A00" cx="325.803" cy="662.519" r="12"/>
	<circle fill-rule="evenodd" clip-rule="evenodd" fill="#FF5A00" cx="315.505" cy="608.758" r="12"/>
	<circle fill-rule="evenodd" clip-rule="evenodd" fill="#FF5A00" cx="404.32" cy="602.802" r="12"/>
</g>
<g id="Edinburgh">
	<circle fill-rule="evenodd" clip-rule="evenodd" fill="#FF5A00" cx="267.391" cy="399.086" r="12"/>
	<g>
		<path display="none" fill="#FFFFFF" d="M268.981,404.098c0,0.391-0.153,0.51-0.527,0.51h-1.105c-0.442,0-0.544-0.085-0.544-0.493
			v-8.873l-2.363,1.343c-0.102,0.068-0.204,0.102-0.289,0.102c-0.153,0-0.272-0.119-0.357-0.289l-0.391-0.765
			c-0.051-0.085-0.068-0.153-0.068-0.221c0-0.153,0.068-0.255,0.272-0.374l3.366-2.006c0.255-0.153,0.425-0.187,0.765-0.187h0.816
			c0.272,0,0.425,0.119,0.425,0.425V404.098z"/>
	</g>
</g>
<g id="Edinburgh_rollover" display="none">
	<circle display="inline" fill-rule="evenodd" clip-rule="evenodd" fill="#6CC04A" cx="267.391" cy="399.086" r="12"/>
	
		<rect x="257.421" y="392.453" display="inline" fill-rule="evenodd" clip-rule="evenodd" fill="none" width="18.851" height="18.17"/>
	
		<text transform="matrix(1 0 0 1 262.4873 404.5225)" display="inline" fill="#FFFFFF" font-family="'NetworkRailSans-Bold'" font-size="17">1</text>
</g>
<g id="numbers" display="none">
	
		<rect x="306.075" y="601.376" display="inline" fill-rule="evenodd" clip-rule="evenodd" fill="none" width="18.851" height="18.17"/>
	
		<text transform="matrix(1 0 0 1 311.1416 613.4448)" display="inline" fill="#FFFFFF" font-family="'NetworkRailSans-Bold'" font-size="17">2</text>
	
		<rect x="367.49" y="597.405" display="inline" fill-rule="evenodd" clip-rule="evenodd" fill="none" width="18.851" height="18.17"/>
	
		<text transform="matrix(1 0 0 1 372.5566 609.4727)" display="inline" fill="#FFFFFF" font-family="'NetworkRailSans-Bold'" font-size="17">3</text>
	
		<rect x="394.327" y="595.987" display="inline" fill-rule="evenodd" clip-rule="evenodd" fill="none" width="18.851" height="18.17"/>
	
		<text transform="matrix(1 0 0 1 399.3936 608.0537)" display="inline" fill="#FFFFFF" font-family="'NetworkRailSans-Bold'" font-size="17">4</text>
	
		<rect x="316.09" y="655.989" display="inline" fill-rule="evenodd" clip-rule="evenodd" fill="none" width="18.851" height="18.17"/>
	
		<text transform="matrix(1 0 0 1 321.1572 668.0547)" display="inline" fill="#FFFFFF" font-family="'NetworkRailSans-Bold'" font-size="17">5</text>
	
		<rect x="259.617" y="742.365" display="inline" fill-rule="evenodd" clip-rule="evenodd" fill="none" width="18.851" height="18.17"/>
	
		<text transform="matrix(1 0 0 1 264.6841 754.4302)" display="inline" fill="#FFFFFF" font-family="'NetworkRailSans-Bold'" font-size="17">6</text>
	
		<rect x="408.076" y="735.377" display="inline" fill-rule="evenodd" clip-rule="evenodd" fill="none" width="18.851" height="18.17"/>
	
		<text transform="matrix(1 0 0 1 413.1465 747.439)" display="inline" fill="#FFFFFF" font-family="'NetworkRailSans-Bold'" font-size="17">7</text>
	
		<rect x="393.762" y="758.147" display="inline" fill-rule="evenodd" clip-rule="evenodd" fill="none" width="18.851" height="18.17"/>
	
		<text transform="matrix(1 0 0 1 398.8281 770.209)" display="inline" fill="#FFFFFF" font-family="'NetworkRailSans-Bold'" font-size="17">8</text>
	
		<rect x="422.128" y="758.694" display="inline" fill-rule="evenodd" clip-rule="evenodd" fill="none" width="18.851" height="18.17"/>
	
		<text transform="matrix(1 0 0 1 427.1943 770.7578)" display="inline" fill="#FFFFFF" font-family="'NetworkRailSans-Bold'" font-size="17">9</text>
	
		<rect x="402.637" y="801.717" display="inline" fill-rule="evenodd" clip-rule="evenodd" fill="none" width="23.962" height="24.797"/>
	<text transform="matrix(1 0 0 1 406.4067 813.7847)" display="inline"><tspan x="0" y="0" fill="#FFFFFF" font-family="'NetworkRailSans-Bold'" font-size="17" letter-spacing="-1">1</tspan><tspan x="7.701" y="0" fill="#FFFFFF" font-family="'NetworkRailSans-Bold'" font-size="17">0</tspan></text>
</g>
</svg>
